<?xml version="1.0" encoding="utf-8"?>
<!-- Generator: Adobe Illustrator 21.0.2, SVG Export Plug-In . SVG Version: 6.00 Build 0)  -->
<svg version="1.1" id="Layer_1" xmlns="http://www.w3.org/2000/svg" xmlns:xlink="http://www.w3.org/1999/xlink" x="0px" y="0px"
	 viewBox="0 0 784 92" style="enable-background:new 0 0 784 92;" xml:space="preserve">
<style type="text/css">
	.st0{fill:#FFFFFF;}
	.st1{fill-rule:evenodd;clip-rule:evenodd;fill:#FFFFFF;}
	.st2{fill:#1C2759;}
	.st3{fill:#C9202F;}
</style>
<title>Logos</title>
<desc>Created with Sketch.</desc>
<g id="Page-1">
	<g id="logos">
		<g id="Jamal-Benmiloud">
			<g id="Home">
				<g id="Topics">
					<g id="Logos" transform="translate(0.000000, 0.874118)">
						<g id="Monster" transform="translate(0.000000, 24.587838)">
							<polygon id="Fill-1" class="st0" points="28.7,-185.9 28.5,-185.8 28.3,-185.7 27.9,-185.4 27.1,-185.1 25.6,-184.8 
								25.2,-184.7 24.9,-184.5 24.6,-184.3 24.3,-184.1 24,-184 23.8,-184 23.5,-184.1 23.3,-184.2 23.2,-184.2 23.1,-184.2 
								22.9,-184.2 22.8,-184.1 22.8,-183.9 22.6,-183.7 22.5,-183.6 22.4,-183.4 22.1,-183.3 21.8,-183.2 21.6,-183 21.4,-182.8 
								21.5,-182.5 21.5,-182.4 21.6,-182.3 21.6,-182.2 21.7,-182.1 21.8,-182 21.9,-182 22.1,-182 22.2,-182 22.6,-181.9 
								22.7,-181.8 22.8,-181.7 22.9,-181.6 23,-181.6 23.1,-181.6 23.2,-181.6 23.4,-181.6 23.5,-181.6 23.9,-181.8 24.7,-181.2 
								25,-180.9 25.3,-180.6 25.4,-180.5 25.4,-180.3 25.4,-180 25.4,-179.7 25.6,-179.1 25.6,-178.5 25.6,-178.3 25.5,-178 
								25.4,-177.8 25.3,-177.6 25.1,-177.4 25.1,-177.2 25.1,-177.1 25.1,-177 25.1,-176.9 25.2,-176.8 25.4,-176.6 25.6,-176.3 
								25.8,-176.1 26,-175.9 26.1,-175.7 26.2,-175.6 26.2,-175.4 26.2,-174.9 26.1,-174.3 26,-173.9 26,-173.6 26,-173.2 
								26,-172.9 26,-172.5 26.2,-172.2 26.2,-172 26.3,-171.8 26.3,-171.6 26.2,-171.4 26,-170.6 26,-170.4 26,-170.2 26,-170.1 
								26,-170 26.1,-169.9 26.1,-169.8 26.4,-169.4 26.5,-169.1 26.6,-168.9 26.7,-168.7 26.7,-168.4 26.7,-168.2 26.7,-167.9 
								26.7,-167.1 26.6,-166.6 26.5,-166.2 26.4,-165.8 26.4,-165.4 26.4,-165.1 26.5,-164.7 26.5,-164.4 26.6,-164 26.7,-163.7 
								26.9,-163.3 27,-163 27.2,-162.6 27.3,-162.2 27.3,-161.8 27.4,-161.5 27.3,-161.2 27.3,-160.9 27.1,-160.7 27,-160.3 
								26.9,-159.9 26.8,-159.5 26.7,-159.1 26.7,-158.7 26.6,-158.3 26.5,-157.8 26.4,-157.4 26.2,-156.8 25.9,-156.1 25.6,-155.5 
								25.2,-154.7 25.1,-154.5 25.2,-154.3 25.2,-154.1 25.4,-153.7 25.7,-153.3 25.8,-153.1 26,-152.9 26,-152.7 26.1,-152.4 
								26.1,-152.1 26.1,-151.4 26,-151.1 26,-150.7 25.9,-150.4 25.9,-150 26,-149.7 26,-149.4 26.2,-148.9 26.3,-148.7 
								26.4,-148.5 26.5,-148.2 26.5,-148 26.5,-147.7 26.5,-147.5 26.5,-147.2 26.4,-146.4 26.3,-145.6 26.3,-145.1 26.4,-144.5 
								26.5,-144 26.7,-143.5 26.7,-143.3 26.7,-143.2 26.6,-143 26.5,-142.8 26.3,-142.5 26.1,-142.2 26.1,-142.1 26.1,-142 
								26.1,-141.8 26.2,-141.7 26.4,-141.4 26.7,-141.1 26.9,-140.7 27.1,-140.3 27.2,-139.9 27.3,-139.5 27.4,-139.1 27.5,-138.7 
								27.6,-138.3 27.6,-137.8 27.4,-137.2 27.3,-136.7 27.3,-136.1 27.2,-135.9 27.1,-135.6 27,-135.4 26.9,-135.2 26.9,-135 
								26.9,-134.8 27,-134.6 27.1,-134.5 27.3,-134.7 27.5,-134.8 28.1,-136 28.3,-136.2 28.4,-136.5 28.5,-136.7 28.6,-137 
								28.6,-137.3 28.6,-137.6 28.6,-137.8 28.6,-138.1 28.6,-138.7 28.7,-139.1 28.9,-139.2 29,-139.3 29,-139.4 29,-139.5 
								29,-139.7 28.9,-140.1 28.9,-140.3 28.9,-140.4 29,-140.6 29.1,-140.9 29.1,-141.3 29.1,-141.7 29.2,-142 29.3,-142.3 
								29.3,-142.6 29.4,-142.9 29.5,-143.1 29.5,-143.3 29.5,-143.6 29.4,-143.9 29.3,-144.1 29.1,-144.4 29,-144.7 28.8,-145 
								28.7,-145.3 28.7,-145.6 28.6,-146 28.6,-146.3 28.7,-146.6 28.8,-147.3 28.9,-148 28.8,-148.6 28.7,-149.3 29,-149.7 
								29.2,-150.2 29.3,-150.7 29.2,-151.2 29.2,-151.7 29,-152.2 29,-152.6 28.9,-153 28.9,-153.4 29,-153.8 29,-154.1 29,-154.5 
								29,-154.8 28.9,-155.1 28.8,-155.4 28.8,-155.7 28.9,-156.2 29,-156.7 29.1,-157.1 29.4,-157.6 29.7,-158.2 30,-158.8 
								30,-159.2 30.1,-159.7 30.1,-159.9 30.2,-160 30.2,-160.2 30.4,-160.3 30.8,-160.9 31.2,-161.5 31.3,-161.6 31.5,-161.9 
								31.5,-162.1 31.5,-162.3 31.5,-162.5 31.5,-162.6 31.5,-162.8 31.1,-163.9 30.7,-165 30.6,-165.4 30.4,-165.8 30.4,-166.3 
								30.4,-166.7 30.5,-167.1 30.5,-167.6 30.7,-168 30.7,-168.4 30.8,-168.9 30.8,-169.3 30.8,-169.4 30.8,-169.6 31,-169.8 
								31.4,-170.1 31.5,-170.2 31.5,-170.3 31.5,-170.4 31.5,-170.5 31.4,-171.1 31.3,-171.7 31.1,-172.3 31,-172.9 30.9,-173.1 
								30.9,-173.4 30.9,-173.6 30.9,-173.9 31.1,-174.3 31.2,-174.7 31.2,-175 31.1,-175.2 31,-175.4 30.8,-175.6 30.6,-175.8 
								30.5,-175.8 30.5,-175.9 30.4,-176 30.4,-176.1 30.5,-176.2 30.5,-176.4 30.8,-176.8 30.8,-176.9 30.8,-177 30.8,-177.2 
								30.7,-177.4 30.6,-177.6 30.5,-177.9 30.5,-178.1 30.5,-178.2 30.6,-178.5 30.7,-178.7 30.8,-178.9 30.9,-179.1 31,-179.2 
								31.2,-179.4 31.6,-179.8 31.7,-180 31.8,-180.2 31.8,-180.4 31.9,-180.6 31.9,-180.7 31.9,-180.9 32,-181 32.1,-181.2 
								32.5,-181.5 32.9,-181.8 33.3,-181.9 33.6,-182 33.6,-182.2 33.7,-182.3 33.5,-182.5 33.4,-182.6 32.9,-182.6 32.7,-182.6 
								32.5,-182.7 32.4,-182.8 32.3,-182.9 32.3,-183.3 32.3,-183.5 32.2,-183.7 32.1,-183.9 32,-184 31.1,-184.4 30.3,-184.8 
								29.5,-185.3 							"/>
							<polygon id="Fill-2" class="st0" points="16.1,-184.2 15.9,-184.1 15.7,-183.9 15.5,-183.7 15.3,-183.5 15.1,-183.5 
								15,-183.5 14.7,-183.2 14.3,-183.1 14,-183 13.6,-182.9 12.1,-182.9 11.7,-182.8 11.4,-182.7 11,-182.6 10.7,-182.4 
								10.4,-182.3 10.1,-182.2 9.5,-182 9.3,-182 9,-182 8.9,-182 8.7,-182 8.6,-181.9 8.5,-181.8 8.3,-181.6 8.2,-181.4 
								8.2,-181.3 8.3,-181.2 8.5,-181.2 8.8,-181.2 9.1,-181.2 9.4,-181.3 9.5,-181.2 9.7,-181.2 10.3,-181 10.9,-180.8 
								11.6,-180.7 12.2,-180.6 12.9,-180.4 13.2,-180.3 13.4,-180.1 13.6,-179.9 13.7,-179.7 13.9,-179.3 13.9,-179.1 13.9,-178.9 
								13.7,-178.4 13.7,-178.3 13.7,-178.2 13.7,-178.1 13.8,-178 13.9,-177.9 14,-177.8 14.5,-177.5 14.7,-177.3 14.8,-177.2 
								14.8,-177 14.9,-176.7 15,-176.3 15.1,-175.9 15.1,-175.7 15.1,-175.5 15,-175.3 15,-175.1 15,-174.8 15.1,-174.1 
								15.1,-173.8 15,-173.5 14.8,-173.1 14.6,-172.6 14,-169.9 14,-169.4 14,-169.2 14.1,-169 14.2,-168.8 14.3,-168.6 
								14.6,-168.1 14.9,-167.6 15.1,-167.2 15.2,-166.8 15.7,-165.3 16.1,-163.9 16.1,-163.4 16.1,-163 16.1,-162.5 16.1,-162.2 
								16.2,-162 16.2,-161.9 16.2,-161.7 16.2,-161.6 16.1,-161.4 16,-160.9 15.9,-160.7 15.9,-160.5 16,-160.3 16,-160.2 
								16.2,-160 16.4,-159.7 16.4,-159.5 16.5,-159.2 16.6,-158 16.7,-157.3 16.7,-157 16.7,-156.6 16.7,-156.3 16.6,-156 
								16.5,-155.7 16.4,-155.4 16.2,-155.1 16,-154.8 15.8,-154.5 15.6,-154.1 15.5,-153.6 15.4,-153.2 15.5,-153.1 15.6,-152.9 
								16,-152.5 16.2,-152.4 16.3,-152.2 16.3,-152 16.3,-151.8 16.2,-151.3 16.1,-151.1 16.1,-151 16.1,-150.9 16.2,-150.7 
								16.3,-150.5 16.5,-150.2 16.6,-150 16.7,-149.8 16.7,-149.6 16.6,-149.5 16.5,-149.2 16.4,-148.9 16.4,-148.6 16.5,-148.4 
								16.7,-147.7 17,-147.1 17.2,-146.4 17.4,-145.7 17.5,-144.9 17.6,-144.2 17.7,-143.5 17.8,-142.7 17.9,-142 18.2,-141.2 
								18.4,-140.7 18.6,-140.5 18.8,-140.1 18.9,-139.7 18.8,-139.3 18.8,-138.9 19,-138.3 19.4,-138 19.3,-138.3 19.3,-138.7 
								19.4,-139.1 19.7,-139.5 19.6,-139.8 19.4,-140 19.3,-140.2 19.2,-140.4 19,-141 19,-141.2 19,-141.5 18.9,-141.7 
								18.9,-141.9 18.8,-142.4 18.8,-142.8 18.9,-143.4 18.9,-143.9 18.9,-144.5 18.9,-145.1 18.9,-145.9 18.9,-146.7 19,-147.6 
								19.1,-148.4 19.2,-149 19.2,-149.3 19.2,-149.7 19.2,-150 19.2,-150.3 19.1,-150.6 19,-150.9 18.9,-151.2 18.8,-151.5 
								18.8,-151.8 18.8,-152.1 18.8,-152.7 18.8,-153 18.9,-153.3 19.2,-154.2 19.7,-156.4 19.9,-157.1 20.1,-157.7 20.1,-157.9 
								20.1,-158.1 20.1,-158.3 20,-158.5 20,-158.6 19.9,-158.8 19.7,-158.9 19.6,-159 19.5,-159.2 19.4,-159.3 19.4,-159.4 
								19.4,-159.6 19.6,-160 19.7,-160.2 19.8,-160.5 19.8,-160.6 19.7,-160.8 19.6,-161 19.6,-161.2 19.5,-161.6 19.5,-161.9 
								19.5,-162.1 19.6,-162.3 19.6,-162.5 19.8,-162.9 20,-163.4 20.2,-163.8 20.5,-164.2 20.5,-164.3 20.6,-164.4 20.6,-164.5 
								20.5,-164.6 20.4,-164.9 20.3,-165.1 19.8,-165.8 19.7,-166 19.6,-166.2 19.5,-166.4 19.5,-166.6 19.5,-166.9 19.4,-167.1 
								19.2,-167.6 18.9,-168.1 18.8,-168.4 18.7,-168.7 18.7,-168.9 18.7,-169.2 18.8,-169.4 18.8,-169.7 18.7,-170.3 18.5,-170.9 
								18.5,-171.2 18.5,-171.6 18.5,-171.9 18.6,-172.2 18.8,-172.6 19,-173 19.2,-173.4 19.4,-173.7 19.5,-174.1 19.6,-174.5 
								19.3,-174.6 18.9,-174.8 18.8,-175.1 18.8,-175.6 18.8,-176.2 18.8,-176.8 18.8,-177.3 19,-177.7 19.1,-177.8 19.2,-178 
								19.6,-178.2 20,-178.5 20.2,-178.6 20.4,-178.7 20.5,-178.9 20.5,-179 20.5,-179.3 20.5,-179.5 20.5,-179.8 20.5,-180.1 
								20.5,-180.2 20.6,-180.4 20.7,-180.5 20.8,-180.6 20.8,-180.8 20.7,-180.9 20.4,-181.3 20.4,-181.4 20.5,-181.6 20.5,-181.6 
								20.6,-181.7 20.6,-181.7 20.5,-181.8 20.4,-182.2 20.2,-182.8 20.1,-183 20,-183.2 19.8,-183.2 17.7,-183.3 17.3,-183.4 
								17,-183.6 16.6,-183.9 16.4,-184.1 16.3,-184.2 							"/>
							<polygon id="Fill-3" class="st0" points="38.9,-184.1 38.6,-183.9 38.3,-183.8 38,-183.7 37.6,-183.5 37.5,-183.2 37.4,-183 
								37.3,-182.8 37.1,-182.7 36.8,-182.4 36.6,-182.2 36.3,-182.1 35.8,-181.9 35.2,-181.7 34.5,-181.5 33.9,-181.4 33.7,-181.3 
								33.5,-181.3 33.3,-181.2 33.2,-181.1 33,-180.9 32.9,-180.8 32.7,-180.6 32.6,-180.4 32.6,-180.2 32.7,-180.1 32.8,-180.1 
								33.7,-180.1 34,-180 34.1,-179.9 34.2,-179.9 34.5,-179.7 34.7,-179.6 35.1,-179.5 35.4,-179.5 36.6,-179.4 37,-179.4 
								37.3,-179.3 37.7,-179.2 38,-178.9 38.2,-178.7 38.3,-178.4 38.4,-178.1 38.4,-177.7 38.4,-177.3 38.4,-176.9 38.4,-176.4 
								38.3,-176 38.3,-175.8 38.3,-175.7 38.5,-175.1 38.5,-175 38.4,-174.8 38.3,-174.6 38.3,-174.4 38.2,-174.2 38.2,-173.8 
								38.3,-173.6 38.5,-173.4 38.5,-173.3 38.5,-173.2 38.5,-173.1 38.4,-172.9 38.3,-172.8 37.6,-172 37.4,-171.7 37.4,-171.6 
								37.4,-171.5 37.5,-171.3 37.6,-171.2 37.9,-170.9 37.9,-170.8 38,-170.7 38,-170.4 38,-170 37.9,-169.7 37.9,-169.4 
								37.8,-169.1 37.7,-168.8 37.7,-168.4 37.7,-168.1 37.7,-167.7 37.8,-167.3 38,-166.9 38.2,-166.5 38.6,-165.9 38.9,-165.2 
								39,-165 39,-164.8 39,-164.6 39,-164.4 38.7,-163.4 38.6,-163.1 38.6,-162.9 38.6,-162.7 38.6,-162.5 38.6,-162.2 38.7,-162 
								38.7,-161.8 38.8,-161.6 39,-161.1 39.2,-160.6 39.3,-160.1 39.4,-159.6 39.5,-158.9 39.4,-158.2 39.4,-157.5 39.2,-156.8 
								39.2,-156.4 39.2,-155.6 39.2,-155.2 39.3,-154.8 39.3,-154.4 39.3,-154 39.2,-153.6 39,-153.1 38.8,-152.7 38.7,-152.4 
								38.6,-152.2 38.6,-151.9 38.6,-151.6 38.6,-151.2 38.9,-150.6 38.9,-150.2 38.9,-150 38.9,-149.9 38.8,-149.7 38.8,-149.5 
								38.5,-148.9 38.1,-148.3 38,-148.1 38,-147.8 38,-147.6 38.1,-147.4 38.3,-146.9 38.5,-146.5 38.6,-146.3 38.6,-146 
								38.7,-145.8 38.7,-145.5 38.7,-145.4 38.6,-145.2 38.5,-144.2 38.5,-143.9 38.4,-143.6 38.4,-143.4 38.4,-143.3 38.4,-143.1 
								38.5,-142.9 38.6,-142.4 38.7,-141.8 38.7,-141.3 38.7,-140.8 38.9,-141 39.1,-141.1 39.2,-141.4 39.4,-141.6 39.3,-141.9 
								39.2,-142.1 39.2,-142.4 39.2,-142.7 39.5,-143.4 39.8,-144 40.1,-144.6 40.5,-145.2 40.7,-145.9 40.9,-146.1 41,-146.4 
								41.2,-146.7 41.2,-147 40.9,-148.2 40.8,-148.5 40.8,-149.1 40.9,-149.5 40.9,-149.8 41,-150.1 41.1,-150.4 41.2,-150.7 
								41.3,-151 41.3,-151.2 41.2,-151.5 41.2,-151.7 40.8,-152.6 40.7,-152.8 40.7,-152.9 40.7,-153.1 40.8,-153.2 40.9,-153.6 
								41.1,-153.9 41.4,-154.3 41.6,-154.7 41.6,-155 41.6,-155.2 41.6,-155.5 41.5,-155.7 41,-156.9 41,-157.2 40.9,-157.5 
								41,-157.8 41,-158.1 41.2,-158.3 41.6,-158.8 41.7,-159.1 41.9,-159.4 42,-159.7 42.1,-160.1 42.1,-160.5 42.2,-160.9 
								42.3,-161.2 42.3,-161.6 42.3,-162 42.2,-162.3 42.1,-162.7 42,-163 41.8,-163.4 41.1,-164.4 41,-164.7 40.9,-165 
								40.9,-165.3 40.9,-165.6 40.9,-166 41.1,-166.4 41.2,-166.9 41.3,-167.4 41.5,-168.3 41.4,-168.4 41.3,-168.5 41,-168.8 
								40.9,-168.9 40.8,-169 40.8,-169.4 40.9,-170 40.9,-170.5 40.9,-171 40.8,-171.5 40.8,-171.7 40.8,-171.9 40.9,-172.1 
								41,-172.4 41.1,-172.6 41.4,-173.2 41.6,-173.6 41.9,-174.7 42.1,-175.7 42.2,-175.9 42.3,-176.1 42.8,-176.6 42.9,-176.7 
								43,-176.8 43,-177 43,-177.4 43,-177.6 43.1,-177.8 43.2,-178 43.7,-178.9 43.6,-179 43.4,-179.2 43.3,-179.3 43.2,-179.5 
								43.2,-179.7 43.3,-179.9 43.3,-180.3 43.4,-180.6 43.4,-180.7 43.3,-180.8 43.3,-181 43.2,-181 43.1,-181.2 42.9,-181.2 
								42.7,-181.4 42.5,-181.5 42.5,-181.6 42.5,-181.8 42.6,-182 42.7,-182.2 42.7,-182.4 42.6,-182.4 42.4,-182.5 42.3,-182.6 
								42.2,-182.7 42.1,-182.9 41.8,-183.3 41.7,-183.4 41.6,-183.5 41.5,-183.5 41.4,-183.6 40.8,-183.7 40.3,-183.8 40,-183.9 
								39.8,-184 39.5,-184.2 39.4,-184.4 							"/>
						</g>
						<g id="Red-Bull" transform="translate(79.136150, 38.114865)">
							<polygon id="Fill-1_1_" class="st0" points="99.5,-161.6 104.8,-161.6 104.8,-186.3 99.5,-186.3 							"/>
							<polygon id="Fill-2_1_" class="st0" points="107.6,-161.6 112.8,-161.6 112.8,-186.3 107.6,-186.3 							"/>
							<path id="Fill-3_1_" class="st0" d="M53.1-175.1c-1.2-1.3-2.9-2-4.7-2c-3.9,0-7.1,3.5-7.1,7.9c0,4.3,3.2,7.9,7.1,7.9
								c1.8,0,3.5-0.7,4.7-2v1.6h5.4v-24.6h-5.4V-175.1z M50-165.8c-1.7,0-3.1-1.5-3.1-3.4c0-1.9,1.4-3.4,3.1-3.4
								c1.7,0,3.1,1.5,3.1,3.4C53.1-167.3,51.7-165.8,50-165.8L50-165.8z"/>
							<path id="Fill-5" class="st0" d="M77.8-174.6c4.6-4.9,1.2-10.5-5-10.5h-3.4h-5.6v23.4h8.9C82.7-161.6,84.4-171.9,77.8-174.6
								 M72.7-166.4h-3.3v-14h3.4c1.9,0,1.8,4.2-0.2,4.2h-2.3v4.6h2.3C76.9-171.6,77.1-166.4,72.7-166.4"/>
							<path id="Fill-7" class="st0" d="M32.4-177.3c-4.5,0-8.1,3.6-8.1,8.1c0,4.5,3.6,8.1,8.1,8.1c3.5,0,6.3-1.4,7.3-4.1l-4.1-2.2
								c-1.3,2.7-5.8,2.1-5.5-0.4l10.1-0.1C40.2-167.8,41.3-177.3,32.4-177.3L32.4-177.3z M30-171.1c0.2-1.3,0.9-2.3,2.5-2.3
								c1.6,0,2.1,1,2.4,2.3C34.9-171.1,30-171.1,30-171.1z"/>
							<path id="Fill-9" class="st0" d="M17.9-185H8.2v23.3h5.6v-18.7h2.8c2.8,0,2.7,5.3,0.1,5.3h-2.3v6l5.2,7.6l6.4-0.1l-6.7-9.7
								C27.4-174,24.8-185,17.9-185"/>
							<path id="Fill-11" class="st0" d="M92.4-167.5c0,2.3-4.4,2.3-4.4,0v-9h-5.2v9.7c0,4.2,4.4,5.9,7.6,5.9c3.1,0,7.3-1.6,7.3-5.9
								v-9.7h-5.2L92.4-167.5L92.4-167.5z"/>
						</g>
						<g id="Lego" transform="translate(228.820031, 35.040541)">
							<path id="Fill-1_2_" class="st0" d="M70.7-186.3c-0.9,0-1.7,0.8-1.7,1.7c0,0.9,0.7,1.7,1.7,1.7c0.9,0,1.7-0.7,1.7-1.7
								C72.3-185.6,71.6-186.3,70.7-186.3L70.7-186.3z M70.7-186c0.7,0,1.3,0.6,1.3,1.4c0,0.7-0.6,1.4-1.3,1.4
								c-0.7,0-1.3-0.6-1.3-1.4C69.3-185.4,69.9-186,70.7-186L70.7-186z M71.5-183.8l-0.2-0.4c-0.2-0.3-0.2-0.4-0.4-0.4v0
								c0.3,0,0.5-0.2,0.5-0.5c0-0.3-0.2-0.5-0.5-0.5H70v1.7h0.4v-0.7h0.1c0.2,0,0.2,0,0.3,0.1c0.1,0.1,0.2,0.2,0.2,0.3l0.1,0.3
								C71.1-183.8,71.5-183.8,71.5-183.8z M70.4-184.8v-0.5h0.3c0.2,0,0.4,0.1,0.4,0.2c0,0.1-0.1,0.2-0.3,0.2L70.4-184.8
								L70.4-184.8z"/>
							<path id="Fill-4" class="st0" d="M62.1-176.7c-0.1,1.8-2.7,9-3.6,10.6c-0.4,0.7-0.9,1.3-1.7,1.3c-0.7,0-1-0.5-1-1.1
								c-0.1-1.6,2.9-9.7,3.9-11.1c0.4-0.7,0.9-0.8,1.5-0.8C62-177.8,62.1-177.2,62.1-176.7 M66.8-173.8c-0.6,3-1.9,6.5-3.4,9.1
								c-2.4,4.3-5.2,4.9-7.7,4.8c-2.5,0-5.3-1-5.3-4.9c0-2.8,1.2-6.7,2.2-9.3c1.8-4.7,3.6-8.5,9.3-8.4
								C68.5-182.3,67.3-176.4,66.8-173.8 M45.7-177.9c-1,0-1.6,0.6-2.1,1.3c-1,1.5-3.3,7.3-3.6,9.7c-0.2,1.6,0.5,2,1.2,2
								c1.2,0,2.6-1.3,3.1-3.5c0,0-2.4-0.1-1.7-2.2c0.6-2,1.8-2.5,3.8-2.6c3.9-0.2,3.5,2.8,3.2,4.3c-1,5-4.6,9.1-9.6,9.1
								c-3.4,0-5.6-1.9-5.6-5.5c0-2.5,1.2-6.5,2.2-8.8c2.1-4.9,4.3-8.4,9.9-8.4c3.4,0,6,1.2,5.6,4.4c-0.3,2.3-1.4,3.7-3.5,3.9
								c-0.6,0-3,0-2.2-2.3C46.7-177.3,46.9-177.9,45.7-177.9 M28.2-169.2c-0.2,0.6-0.7,1.9-1,3.3c1.1-0.3,2-0.5,3.5-0.5
								c1.7,0,2.7,0.7,2.7,2.1c0,3.4-3.7,4.4-6.3,4.4c-2.8,0-5.3-1.6-5.3-4.7c0-3.7,2-9.2,3.8-12.9c2.3-4.5,4.6-5.1,8.5-5.1
								c1.8,0,3.8,0.8,3.8,2.4c0,2.3-1.9,3.2-3.9,3.3c-0.8,0-2.1,0.1-2.8,0c0,0-0.6,1-1.3,2.7c3.6-0.5,5.1,0.3,4.5,2.4
								C33.5-168.9,31.1-168.7,28.2-169.2 M16.8-166c3.5-0.6,4.4,0.7,4.2,1.8c-0.3,3.5-3.5,4.3-6.3,4.2c-2,0-3.8-1-3.9-3.3
								c-0.1-4.1,4.1-13.7,6.1-16.9c0.9-1.5,2-2.2,3.8-2.2c1.7,0,2.1,0.9,2.1,1.9C22.7-177.7,18.3-169.2,16.8-166 M61.6-184.5
								c-3.6,0-6.1,1.4-7.8,3.4c-0.3-0.6-0.5-0.9-0.8-1.2c-1.4-1.6-3.6-2.3-6.6-2.3c-2.9,0-5.3,0.9-7,2.4c-0.9-1.4-3-2.4-5.5-2.4
								c-3.3,0-6.8,0.5-9,3.9c-0.1-1.2-0.2-1.9-0.9-2.6c-0.8-0.9-2.2-1.1-3.5-1.1c-2.4,0-4.2,1.1-5.5,3.2c-1.9,3.1-6.5,13.1-6.4,18
								c0.1,3.1,2.2,5.4,5.9,5.5c2.9,0.1,5.2-0.7,6.7-2.2c1.3,1.4,3.3,2.3,5.7,2.3c2.7,0,5.3-0.8,6.9-2.6c1.3,1.7,3.4,2.6,6.1,2.6
								c3.5,0,6.6-1.7,8.6-4.3c1.1,3,3.9,4.3,7,4.3c6.7,0,9.7-4.7,12.1-12.1c0.6-1.7,1.3-4.4,1.4-6.8
								C69.5-180.4,67.8-184.5,61.6-184.5"/>
						</g>
						<g id="Xiaomi" transform="translate(341.402191, 39.736486)">
							<polygon id="Xaomi-path" class="st0" points="16.5,-167.1 21.2,-167.1 21.2,-178.8 16.5,-178.8 							"/>
							<path id="Xaomi-path_1_" class="st0" d="M25-167l-0.1-12.3c0-1.7-1.2-2.8-2.8-2.9c-2.2,0-7.6,0-9.1,0.1v15.1H8.3v-19.2
								l4.6,0.1h11.5c2.9,0,4.9,2.6,4.9,5.4c0,4.4,0.1,13.7,0.1,13.7L25-167z"/>
							<polygon id="Xaomi-path_2_" class="st0" points="33,-167 37.7,-167 37.7,-186.2 33,-186.2 							"/>
						</g>
						<g id="Huel" transform="translate(418.992175, 30.736486)">
							<polygon id="Fill-10" class="st0" points="93.1,-186.1 94.5,-181.9 94.5,-181.9 95.8,-186.1 97.7,-186.1 97.7,-180 
								96.5,-180 96.5,-184.3 96.4,-184.3 95,-180 93.9,-180 92.5,-184.3 92.4,-184.3 92.4,-180 91.2,-180 91.2,-186.1 							"/>
							<polygon id="Fill-9_1_" class="st0" points="86,-184.9 86,-186.1 90.9,-186.1 90.9,-184.9 89.1,-184.9 89.1,-180 87.8,-180 
								87.8,-184.9 							"/>
							<polygon id="Fill-7_1_" class="st0" points="76.7,-158.1 82.2,-158.1 82.2,-186.1 76.7,-186.1 							"/>
							<path id="Fill-4_1_" class="st0" d="M68.1-173.6c-0.7-0.7-1.7-1.1-3-1.1c-0.9,0-1.6,0.2-2.2,0.5c-0.6,0.3-1.1,0.7-1.4,1.1
								c-0.4,0.4-0.6,0.9-0.7,1.4c-0.1,0.5-0.2,0.9-0.3,1.3h9C69.2-171.8,68.7-172.9,68.1-173.6 M61.8-162.9c0.8,0.8,2,1.2,3.6,1.2
								c1.1,0,2.1-0.3,2.9-0.8c0.8-0.6,1.3-1.2,1.5-1.8h4.9c-0.8,2.4-2,4.2-3.6,5.2c-1.6,1-3.6,1.6-5.9,1.6c-1.6,0-3-0.3-4.3-0.8
								c-1.3-0.5-2.4-1.2-3.2-2.2c-0.9-0.9-1.6-2.1-2.1-3.4c-0.5-1.3-0.7-2.7-0.7-4.3c0-1.5,0.2-2.9,0.7-4.2
								c0.5-1.3,1.2-2.4,2.1-3.4c0.9-1,2-1.7,3.3-2.3c1.3-0.5,2.7-0.8,4.2-0.8c1.7,0,3.2,0.3,4.5,1s2.3,1.6,3.1,2.7
								c0.8,1.1,1.4,2.4,1.8,3.8c0.4,1.4,0.5,2.9,0.4,4.5H60.4C60.5-165.1,61-163.8,61.8-162.9"/>
							<path id="Fill-2_2_" class="st0" d="M48.1-158.1v-2.8H48c-0.7,1.2-1.6,2-2.7,2.6c-1.1,0.5-2.3,0.8-3.4,0.8
								c-1.5,0-2.7-0.2-3.7-0.6c-1-0.4-1.7-0.9-2.2-1.7c-0.5-0.7-0.9-1.6-1.2-2.6c-0.2-1-0.3-2.2-0.3-3.4v-12.5H40v11.5
								c0,1.7,0.3,2.9,0.8,3.7c0.5,0.8,1.4,1.2,2.8,1.2c1.5,0,2.6-0.5,3.3-1.4c0.7-0.9,1-2.4,1-4.5v-10.6h5.6v20.3L48.1-158.1
								L48.1-158.1z"/>
							<polygon id="Fill-1_3_" class="st0" points="25.6,-186.1 25.6,-175.3 14.3,-175.3 14.3,-186.1 8.2,-186.1 8.2,-158.1 
								14.3,-158.1 14.3,-170.2 25.6,-170.2 25.6,-158.1 31.7,-158.1 31.7,-186.1 							"/>
						</g>
						<g id="Castrol" transform="translate(549.658842, 28.891892)">
							<path id="Fill-4_2_" class="st0" d="M22.6-169.9h0.8c0.3,0,0.5-0.2,0.5-0.5l0-0.1c0-0.3-0.2-0.5-0.5-0.5h-0.6l0.3-0.8H24
								c0.3,0,0.5-0.2,0.5-0.5l0-0.1c0-0.2-0.2-0.5-0.4-0.5l12.2,0c0.6,2.6,0.1,4.6,0.1,4.6H22.9c0.3,0,0.5-0.2,0.5-0.5l0-0.1
								c0-0.3-0.2-0.5-0.5-0.5h-0.7L22.6-169.9L22.6-169.9z M24.3-169.7c-0.2,0-0.3,0.1-0.3,0.2l0,0c0,0.1,0.1,0.2,0.3,0.2H25
								c0.2,0,0.3-0.1,0.3-0.2l0,0c0-0.1-0.1-0.2-0.3-0.2H24.3z M24.8-171.6c-0.2,0-0.3,0.1-0.3,0.2l0,0c0,0.1,0.1,0.2,0.3,0.2h0.8
								c0.2,0,0.3-0.1,0.3-0.2l0,0c0-0.1-0.1-0.2-0.3-0.2H24.8z M26.1-170.6c-0.1,0-0.2,0.1-0.2,0.2l0,0c0,0.1,0.1,0.2,0.2,0.2h0.5
								c0.1,0,0.2-0.1,0.2-0.2l0,0c0-0.1-0.1-0.2-0.2-0.2H26.1L26.1-170.6z M25.6-168.8c-0.1,0-0.2,0.1-0.2,0.2l0,0
								c0,0.1,0.1,0.2,0.2,0.2h0.5c0.1,0,0.2-0.1,0.2-0.2l0,0c0-0.1-0.1-0.2-0.2-0.2H25.6z M26.6-172.4c-0.1,0-0.2,0.1-0.2,0.2v0
								c0,0.1,0.1,0.2,0.2,0.2h0.5c0.1,0,0.2-0.1,0.2-0.2v0c0-0.1-0.1-0.2-0.2-0.2H26.6z M27.3-169.6c-0.1,0-0.2,0.1-0.2,0.2v0
								c0,0.1,0.1,0.2,0.2,0.2h0.5c0.1,0,0.2-0.1,0.2-0.2l0,0c0-0.1-0.1-0.2-0.2-0.2H27.3z M27.8-171.5c-0.1,0-0.2,0.1-0.2,0.2v0
								c0,0.1,0.1,0.2,0.2,0.2h0.5c0.1,0,0.2-0.1,0.2-0.2l0,0c0-0.1-0.1-0.2-0.2-0.2H27.8z M28.9-170.6c-0.1,0-0.2,0.1-0.2,0.2l0,0
								c0,0.1,0.1,0.2,0.2,0.2h0.5c0.1,0,0.2-0.1,0.2-0.2l0,0c0-0.1-0.1-0.2-0.2-0.2H28.9L28.9-170.6z M28.5-168.8
								c-0.1,0-0.2,0.1-0.2,0.2v0c0,0.1,0.1,0.2,0.2,0.2h0.5c0.1,0,0.2-0.1,0.2-0.2l0,0c0-0.1-0.1-0.2-0.2-0.2
								C29-168.8,28.5-168.8,28.5-168.8z M29.5-172.3c-0.1,0-0.2,0.1-0.2,0.2v0c0,0.1,0.1,0.2,0.2,0.2H30c0.1,0,0.2-0.1,0.2-0.2l0,0
								c0-0.1-0.1-0.2-0.2-0.2H29.5z M23.5-172.7h-0.8c-0.3,0-0.5,0.2-0.5,0.5l0,0.1c0,0.3,0.2,0.5,0.5,0.5h0.5L23.5-172.7
								L23.5-172.7L23.5-172.7z M22.3-169.1h-0.7c-0.3,0-0.5,0.2-0.5,0.5l0,0.1c0,0.3,0.2,0.5,0.5,0.5h0.5L22.3-169.1L22.3-169.1
								L22.3-169.1z M22.9-170.9h-0.8c-0.3,0-0.5,0.2-0.5,0.5l0,0.1c0,0.2,0.2,0.5,0.5,0.5h0.6L22.9-170.9L22.9-170.9z M16.8-168.3
								c0.1,0,0.2-0.1,0.2-0.2l0,0c0-0.1-0.1-0.2-0.2-0.2h-0.5c-0.1,0-0.2,0.1-0.2,0.2l0,0c0,0.1,0.1,0.2,0.2,0.2H16.8L16.8-168.3z
								 M17.9-172c0.1,0,0.2-0.1,0.2-0.2l0,0c0-0.1-0.1-0.2-0.2-0.2h-0.5c-0.1,0-0.2,0.1-0.2,0.2v0c0,0.1,0.1,0.2,0.2,0.2H17.9
								L17.9-172z M17.3-170.2c0.1,0,0.2-0.1,0.2-0.2v0c0-0.1-0.1-0.2-0.2-0.2h-0.5c-0.1,0-0.2,0.1-0.2,0.2v0c0,0.1,0.1,0.2,0.2,0.2
								H17.3z M18.3-169.2c0.1,0,0.2-0.1,0.2-0.2l0,0c0-0.1-0.1-0.2-0.2-0.2h-0.5c-0.1,0-0.2,0.1-0.2,0.2v0c0,0.1,0.1,0.2,0.2,0.2
								H18.3L18.3-169.2z M18.8-171.1c0.1,0,0.2-0.1,0.2-0.2l0,0c0-0.1-0.1-0.2-0.2-0.2h-0.5c-0.1,0-0.2,0.1-0.2,0.2v0
								c0,0.1,0.1,0.2,0.2,0.2H18.8L18.8-171.1z M19.3-168.3c0.1,0,0.2-0.1,0.2-0.2l0,0c0-0.1-0.1-0.2-0.2-0.2h-0.5
								c-0.1,0-0.2,0.1-0.2,0.2v0c0,0.1,0.1,0.2,0.2,0.2H19.3L19.3-168.3L19.3-168.3z M20.3-172c0.1,0,0.2-0.1,0.2-0.2l0,0
								c0-0.1-0.1-0.2-0.2-0.2h-0.5c-0.1,0-0.2,0.1-0.2,0.2l0,0c0,0.1,0.1,0.2,0.2,0.2H20.3z M19.8-170.1c0.1,0,0.2-0.1,0.2-0.2v0
								c0-0.1-0.1-0.2-0.2-0.2h-0.5c-0.1,0-0.2,0.1-0.2,0.2v0c0,0.1,0.1,0.2,0.2,0.2H19.8z M21-169.2c0.2,0,0.3-0.1,0.3-0.3l0,0
								c0-0.2-0.1-0.3-0.3-0.3h-0.8c-0.2,0-0.3,0.1-0.3,0.3l0,0c0,0.2,0.1,0.3,0.3,0.3H21z M21.5-171c0.2,0,0.3-0.1,0.3-0.3l0,0
								c0-0.2-0.1-0.3-0.3-0.3h-0.8c-0.2,0-0.3,0.1-0.3,0.3l0,0c0,0.2,0.1,0.3,0.3,0.3H21.5z M67.5-175.7c1.1,1.4,0.7,3.8,0.3,5.4
								l-2.9,10.6c-1.2,0.5-2.7,0.6-4,0.9c-2.7,0.3-5.6,0.2-7.1-2.4c-0.8-1.8-0.5-4.2,0.7-5.7c2.3-2.8,5.6-3.2,8.8-3.8
								c0.3-0.9,0.6-1.9,0.3-2.8c-1-1.3-2.9-0.7-4.3-0.5c-0.8,0.1-1.4,0.4-2.2,0.6c0,0,0.7-3,0.7-3C60.5-177.5,65-178.2,67.5-175.7
								L67.5-175.7z M62.4-167.7c-1.4,0.2-3.1,0.7-3.9,2.2c-0.4,0.9-0.6,2.3,0.2,3.1c0.6,0.6,1.5,0.3,2.3,0.3L62.4-167.7
								C62.4-167.7,62.4-167.7,62.4-167.7z M112-175c1.4,2.9,0.2,6.2-0.6,8.9c-1,2.7-2.9,5.9-5.8,6.8c-2.1,0.6-4.6,0.7-6.4-0.7
								c-2.3-2.2-1.5-6.2-0.6-8.7c1.2-3.6,4-8.1,8.1-8.6C108.8-177.4,110.9-177.1,112-175L112-175z M107-174.2
								c-0.4,0.1-0.8,0.4-1.1,0.8c-2,3.2-3.3,7.5-3.5,10.6c0,0.5,0.3,0.8,0.8,0.8c0.7,0,1-0.3,1.4-0.8c1.8-3,3.2-6.9,3.3-10.7
								C108-174.1,107.5-174.2,107-174.2L107-174.2L107-174.2L107-174.2z M101.6-176.9l-1.8,2.8c-1.1-0.1-2.2-0.1-3.2,0.3l-3.9,14.6
								h-4.5l4.5-16.8c2.3-1.1,4.8-1.6,7.6-1.3L101.6-176.9L101.6-176.9L101.6-176.9z"/>
							<path id="Fill-1_4_" class="st0" d="M80.4-176.8c0,0-0.8,2.7-0.8,2.7c-1.7-0.1-4.2-0.6-5.3,1.3c-0.7,2.8,3.3,3.8,3.7,6.3
								c0.5,2.2,0,4.5-1.8,5.9c-2.5,2.3-6.6,1.8-9.7,1c0,0,0.8-2.9,0.7-2.9c1.8,0.4,4.9,1.2,6.2-0.9c0.9-2.5-2.2-3.5-3.3-5.3
								c-1.2-1.6-0.9-4,0-5.6C72.5-177.5,76.9-177.9,80.4-176.8L80.4-176.8z M16.7-180.3c-1,3.5-1.9,7-2.9,10.4
								c-0.2,0.9-0.3,2.1,0.4,2.8c0.5,0.5,1.1,0.9,1.9,0.9h20c-1,3.9-4.2,7-7.7,8.3c-4,1.5-8.7,0.7-11.8-1.9c-3.9-3.2-5.7-8-4.6-13
								C12.5-175.7,14.1-178.5,16.7-180.3L16.7-180.3z M117.3-164.1c0,0.5-0.3,1.1,0.1,1.6c0.7,0.7,1.8,0.4,2.8,0.5
								c0,0-0.6,2.8-0.6,2.8s-1.7,0-2.5,0c-1.8,0.1-3.6,0-4.4-1.9c-0.5-3,1-5.7,1.6-8.6c0.9-3.6,2.9-10.9,2.9-10.9l4.8-1
								L117.3-164.1L117.3-164.1z M89.1-181.7l-1.2,4.9h3.2l-0.7,2.8h-3.2c0,0-1.3,4.4-1.8,6.6c-0.4,1.6-1,3.6-1,4.9
								c0.7,0.8,2,0.3,2.9,0.4c-0.1,0.9-0.4,1.8-0.7,2.8c-2.3-0.2-5.6,0.9-6.9-1.6c-0.4-0.8-0.2-1.8,0-2.6
								c0.9-3.4,2.8-10.4,2.8-10.4h-1.6l0.7-2.8h1.6c0.4-1.4,1.2-4.2,1.2-4.2L89.1-181.7L89.1-181.7L89.1-181.7z M55-179.8
								c0.9,2.1,0,4.6-0.5,6.6l-4.8,0.8c0.2-1.8,1.3-3.6,0.9-5.7c-0.1-0.2-0.4-0.5-0.6-0.5c-1.3-0.2-2.2,1.2-2.7,2.2
								c-1.6,3.5-2.8,7.4-3.4,11.4c0,1.1-0.3,2.6,0.8,3.1c0.6,0.1,1-0.1,1.4-0.5c1-1.3,2.1-4.7,2.1-4.7c1.7-0.2,3.3-0.6,4.9-0.9
								c-1,3.7-2.3,8.8-6.8,9.5c-2.3,0.3-4.7,0.2-6.3-1.6c-1.9-2.5-1.2-6.4-0.6-9.3c1.3-4.9,3.9-11.8,10-12.4
								C51.5-182.1,53.8-181.9,55-179.8L55-179.8L55-179.8z M35.8-174.6h-18l2-7.5c4.4-1.7,9.1-0.7,12.4,2.2
								C34.8-177.5,35.7-174.9,35.8-174.6L35.8-174.6z M132.5-153.8H24c-5.9-0.3-11.6-3.4-14.2-9.1c-2.6-5.2-2-12.7,1.8-17.2
								c3.7-4.5,8.8-6.1,14.3-6.2h115.4L132.5-153.8L132.5-153.8L132.5-153.8z M140.2-185.6H26.5c-6.1,0.1-12.2,1.7-15.5,7.5
								c-2.9,4.6-2.7,11.9,0.3,16.4c3,4.9,8.1,6.9,13.3,7.1h107.2L140.2-185.6L140.2-185.6L140.2-185.6L140.2-185.6z"/>
						</g>
						<g id="EE" transform="translate(731.856025, 0.000000)">
							<path id="Fill-1_5_" class="st0" d="M26.7-171.3c-9.8,0-17.4,8-17.4,17.2c0,8.2,5.4,12.7,5.4,12.7c0.5,0.5,0.4,0.7,0,1.1
								c0,0-5.4,4.9-5.4,12.5c0,10.4,8.3,17.4,17.4,17.4c10.1,0,17.3-8.2,17.3-17.3c0-7.8-5.2-12.4-5.2-12.4c-0.7-0.7-0.7-0.8,0-1.5
								c0,0,5.2-4.4,5.2-12.5C44-163.2,36.6-171.3,26.7-171.3 M22.8-162.4c0.5,0,0.9,0.3,1.2,0.6c0.3-0.4,0.7-0.6,1.2-0.6
								c0.6,0,1.1,0.3,1.3,0.8c0.2-0.5,0.7-0.8,1.3-0.8c0.6,0,1.1,0.3,1.3,0.8c0.2-0.5,0.7-0.8,1.3-0.8c0.8,0,1.4,0.6,1.4,1.4
								c0,0.8-0.6,1.4-1.4,1.4c-0.6,0-1.1-0.3-1.3-0.8c-0.2,0.5-0.7,0.8-1.3,0.8c-0.6,0-1.1-0.3-1.3-0.8c-0.2,0.5-0.7,0.8-1.3,0.8
								c-0.5,0-0.9-0.3-1.2-0.6c-0.1,0.2-0.2,0.3-0.4,0.4c0.4,0.3,0.6,0.7,0.6,1.2c0,0.5-0.2,0.9-0.6,1.2c0.4,0.3,0.6,0.7,0.6,1.2
								c0,0.5-0.2,0.9-0.6,1.2c0.1,0.1,0.2,0.2,0.3,0.3c0.3-0.3,0.7-0.5,1.1-0.5c0.5,0,1,0.3,1.2,0.7c0.2-0.4,0.7-0.7,1.2-0.7
								c0.5,0,1,0.3,1.2,0.7c0.2-0.4,0.7-0.7,1.2-0.7c0.8,0,1.4,0.6,1.4,1.4s-0.6,1.4-1.4,1.4c-0.5,0-1-0.3-1.2-0.7
								c-0.2,0.4-0.7,0.7-1.2,0.7c-0.5,0-1-0.3-1.2-0.7c-0.2,0.4-0.7,0.7-1.2,0.7c-0.4,0-0.8-0.2-1.1-0.5c-0.1,0.1-0.2,0.2-0.3,0.3
								c0.4,0.3,0.6,0.7,0.6,1.2c0,0.5-0.2,0.9-0.6,1.2c0.4,0.3,0.6,0.7,0.6,1.2s-0.2,0.9-0.6,1.2c0.1,0.1,0.3,0.2,0.4,0.4
								c0.3-0.4,0.7-0.6,1.2-0.6c0.6,0,1.1,0.3,1.3,0.8c0.2-0.5,0.7-0.8,1.3-0.8c0.6,0,1.1,0.3,1.3,0.8c0.2-0.5,0.7-0.8,1.3-0.8
								c0.8,0,1.4,0.6,1.4,1.4c0,0.8-0.6,1.4-1.4,1.4c-0.6,0-1.1-0.3-1.3-0.8c-0.2,0.5-0.7,0.8-1.3,0.8c-0.6,0-1.1-0.3-1.3-0.8
								c-0.2,0.5-0.7,0.8-1.3,0.8c-0.5,0-0.9-0.3-1.2-0.6c-0.3,0.4-0.7,0.6-1.2,0.6c-0.8,0-1.4-0.6-1.4-1.4c0-0.5,0.2-0.9,0.6-1.2
								c-0.4-0.3-0.6-0.7-0.6-1.2c0-0.5,0.2-0.9,0.6-1.2c-0.4-0.3-0.6-0.7-0.6-1.2s0.2-0.9,0.6-1.2c-0.4-0.3-0.6-0.7-0.6-1.2
								c0-0.5,0.2-0.9,0.6-1.2c-0.4-0.3-0.6-0.7-0.6-1.2c0-0.5,0.2-0.9,0.6-1.2c-0.4-0.3-0.6-0.7-0.6-1.2c0-0.5,0.2-0.9,0.6-1.2
								c-0.4-0.3-0.6-0.7-0.6-1.2C21.4-161.7,22-162.4,22.8-162.4 M22.8-136c0.5,0,0.9,0.3,1.2,0.6c0.3-0.4,0.7-0.6,1.2-0.6
								c0.6,0,1.1,0.3,1.3,0.8c0.2-0.5,0.7-0.8,1.3-0.8c0.6,0,1.1,0.3,1.3,0.8c0.2-0.5,0.7-0.8,1.3-0.8c0.8,0,1.4,0.6,1.4,1.4
								s-0.6,1.4-1.4,1.4c-0.6,0-1.1-0.3-1.3-0.8c-0.2,0.5-0.7,0.8-1.3,0.8c-0.6,0-1.1-0.3-1.3-0.8c-0.2,0.5-0.7,0.8-1.3,0.8
								c-0.5,0-0.9-0.3-1.2-0.6c-0.1,0.2-0.2,0.3-0.4,0.4c0.4,0.3,0.6,0.7,0.6,1.2c0,0.5-0.2,0.9-0.6,1.2c0.4,0.3,0.6,0.7,0.6,1.2
								s-0.2,0.9-0.6,1.2c0.1,0.1,0.2,0.2,0.3,0.3c0.3-0.3,0.7-0.5,1.1-0.5c0.5,0,1,0.3,1.2,0.7c0.2-0.4,0.7-0.7,1.2-0.7
								c0.5,0,1,0.3,1.2,0.7c0.2-0.4,0.7-0.7,1.2-0.7c0.8,0,1.4,0.6,1.4,1.4c0,0.8-0.6,1.4-1.4,1.4c-0.5,0-1-0.3-1.2-0.7
								c-0.2,0.4-0.7,0.7-1.2,0.7c-0.5,0-1-0.3-1.2-0.7c-0.2,0.4-0.7,0.7-1.2,0.7c-0.4,0-0.8-0.2-1.1-0.5c-0.1,0.1-0.2,0.2-0.3,0.3
								c0.4,0.3,0.6,0.7,0.6,1.2c0,0.5-0.2,0.9-0.6,1.2c0.4,0.3,0.6,0.7,0.6,1.2c0,0.5-0.2,0.9-0.6,1.2c0.1,0.1,0.3,0.2,0.4,0.4
								c0.3-0.4,0.7-0.6,1.2-0.6c0.6,0,1.1,0.3,1.3,0.8c0.2-0.5,0.7-0.8,1.3-0.8c0.6,0,1.1,0.3,1.3,0.8c0.2-0.5,0.7-0.8,1.3-0.8
								c0.8,0,1.4,0.6,1.4,1.4s-0.6,1.4-1.4,1.4c-0.6,0-1.1-0.3-1.3-0.8c-0.2,0.5-0.7,0.8-1.3,0.8c-0.6,0-1.1-0.3-1.3-0.8
								c-0.2,0.5-0.7,0.8-1.3,0.8c-0.5,0-0.9-0.3-1.2-0.6c-0.3,0.4-0.7,0.6-1.2,0.6c-0.8,0-1.4-0.6-1.4-1.4c0-0.5,0.2-0.9,0.6-1.2
								c-0.4-0.3-0.6-0.7-0.6-1.2c0-0.5,0.2-0.9,0.6-1.2c-0.4-0.3-0.6-0.7-0.6-1.2c0-0.5,0.2-0.9,0.6-1.2c-0.4-0.3-0.6-0.7-0.6-1.2
								c0-0.5,0.2-0.9,0.6-1.2c-0.4-0.3-0.6-0.7-0.6-1.2s0.2-0.9,0.6-1.2c-0.4-0.3-0.6-0.7-0.6-1.2c0-0.5,0.2-0.9,0.6-1.2
								c-0.4-0.3-0.6-0.7-0.6-1.2C21.4-135.4,22-136,22.8-136"/>
						</g>
					</g>
				</g>
			</g>
		</g>
	</g>
</g>
<polygon class="st1" points="228.2,55.5 227,56.8 225.7,58.1 224.3,59.1 222.8,60 221.1,60.7 219.4,61.2 217.6,61.5 215.7,61.6 
	214.1,61.5 212.5,61.3 211.1,60.9 209.6,60.4 208.2,59.7 206.9,58.9 205.7,58 204.6,57 203.6,55.9 202.6,54.6 201.9,53.4 201.2,52 
	200.7,50.5 200.3,49 200.1,47.5 200,45.8 200.1,44.2 200.3,42.7 200.7,41.2 201.2,39.7 201.9,38.3 202.6,37.1 203.6,35.8 
	204.6,34.7 205.7,33.7 206.9,32.8 208.2,32 209.6,31.3 211.1,30.8 212.5,30.4 214.1,30.2 215.7,30.1 217.3,30.2 218.9,30.4 
	220.3,30.8 221.8,31.3 223.1,31.9 224.4,32.7 225.6,33.6 226.7,34.6 229.9,31.7 228.4,30.4 226.9,29.3 225.3,28.3 223.6,27.5 
	221.7,26.9 219.9,26.4 217.9,26.1 215.9,26 213.9,26.1 211.9,26.4 210,26.9 208.1,27.6 206.4,28.4 204.7,29.4 203.2,30.6 
	201.7,31.8 200.5,33.3 199.3,34.8 198.3,36.5 197.5,38.2 196.8,40.1 196.3,42 196,43.9 195.9,46 196,48.1 196.3,50.1 196.8,51.9 
	197.5,53.8 198.3,55.5 199.3,57.2 200.5,58.7 201.7,60.2 203.2,61.4 204.7,62.6 206.4,63.6 208.1,64.4 210,65.1 211.9,65.6 
	213.9,65.9 215.9,66 218.3,65.9 220.5,65.5 222.6,64.8 224.7,63.9 226.6,62.9 228.4,61.6 230.1,60.2 231.5,58.5 228.2,55.5 
	228.2,55.5 "/>
<polygon class="st1" points="210.1,53.9 209.1,53.2 208.2,52.3 207.6,51.6 207.1,50.8 206.7,50 206.3,48.8 202.9,48.8 203.1,49.8 
	203.4,50.7 203.8,51.6 204.3,52.4 204.9,53.3 205.5,54.1 206.2,54.9 206.9,55.7 207.7,56.3 208.5,57 209.4,57.5 210.4,58 
	211.4,58.4 212.4,58.7 213.4,58.9 214.5,59.1 214.6,45.8 208.7,39.9 209,39.3 209.5,38.6 209.9,38.2 210.3,37.8 210.9,37.5 
	211.6,37.1 211.6,38.4 214.5,38.4 214.5,32.9 213.3,33.1 211.9,33.4 210.5,33.9 209.1,34.7 207.7,35.6 206.4,36.8 205.2,38.2 
	204.1,39.9 211.3,47.7 211.3,54.7 210.1,53.9 210.1,53.9 "/>
<path class="st1" d="M224.4,49.6l-0.2,0.6l-0.2,0.5l-0.5,0.8l-0.6,0.9l2.6,2.3l1-1.3l0.9-1.4l0.7-1.4l0.5-1.5l0.3-1.6l0.1-1.7
	l-0.2-1.7l-0.5-1.9l-0.4-1l-0.4-0.9l-0.5-0.8l-0.6-0.8l-0.6-0.8l-0.6-0.7l-0.7-0.6l-0.7-0.6l-1.1-0.8l-0.4-0.3l-1.6-0.8l-1.8-0.6
	l-0.9-0.2l-0.9-0.1v26.2l1.4-0.3l1.2-0.3l0.9-0.4v-9.8h2.2h1.8V49L224.4,49.6L224.4,49.6L224.4,49.6z M222.7,44.4h-2v-6.8l0.9,0.6
	l0.8,0.7l0.3,0.3l0.4,0.5l0.6,0.9l0.4,0.9l0.4,0.9l0.2,1l0.1,0.9H222.7L222.7,44.4L222.7,44.4z"/>
<g>
	<g id="XMLID_2_">
		<g>
			<path class="st0" d="M360.6,66.9H359c0,0.3,0.1,0.6,0.4,0.6c0.2,0,0.4-0.1,0.4-0.3h0.8c0,0.3-0.2,0.5-0.4,0.7
				c-0.2,0.1-0.4,0.2-0.7,0.2c-0.9,0-1.2-0.4-1.2-1.4c0-0.8,0.5-1.2,1.2-1.2C360.3,65.4,360.6,66,360.6,66.9z M359,66.4h0.8
				c0-0.1,0-0.3-0.1-0.4c-0.1-0.1-0.2-0.2-0.3-0.2C359.1,65.9,359,66.2,359,66.4z"/>
			<path class="st0" d="M358,65.4v0.8c-0.1,0-0.1,0-0.2,0c-0.4,0-0.6,0.3-0.6,0.8v1h-0.8v-1.8c0-0.2,0-0.4,0-0.6h0.9l0,0.5h0
				C357.3,65.6,357.6,65.4,358,65.4z"/>
			<path class="st0" d="M355.9,68h-0.8c0-0.1,0-0.2,0-0.3h0c-0.1,0.2-0.3,0.4-0.7,0.4c-0.5,0-0.8-0.3-0.8-0.8c0-0.6,0.5-0.8,1.2-0.8
				h0.3c0-0.2,0-0.5-0.3-0.5c-0.2,0-0.3,0.2-0.3,0.4h-0.8c0-0.3,0.2-0.5,0.4-0.7c0.2-0.1,0.5-0.2,0.8-0.2c0.5,0,1,0.2,1,0.8v1.3
				C355.8,67.6,355.8,67.7,355.9,68z M355,66.8c-0.2,0-0.3,0-0.5,0.1c-0.1,0.1-0.2,0.2-0.2,0.3c0,0.2,0.1,0.3,0.3,0.3
				C355,67.5,355,67.1,355,66.8z"/>
			<path class="st0" d="M355.3,35.1v13c0,0.4-0.5,0.8-0.5,0.8l-4.5,4.9C350,54.1,350,55,350,55v4.6c0.1,0.4,0.3,0.6,0.6,0.8l0,0.2
				h-7.8l0-0.2c0.6-0.2,0.8-0.8,0.8-0.8v-9.8c-0.1-1,0.4-1.4,0.4-1.4l5.6-6.1c0.9-0.6,1.4-0.3,1.4-0.3c1,0.2,1.4,1,1.4,1
				c0.5,1-0.3,1.8-0.3,1.8l-2.4,2.7l-0.2,0.2c-0.5,0.6,0.1,0.6,0.1,0.6l2.7-3c0.7-0.8,0.6-1.7,0.6-1.7c-0.1-1.5-1.3-1.9-1.3-1.9
				c-0.7-0.3-0.6-1-0.6-1V35c0.2-1.4,1.5-1.7,1.5-1.7c0.8-0.3,1.8,0.2,1.8,0.2C355.3,33.9,355.3,35.1,355.3,35.1z"/>
			<path class="st0" d="M353.2,66.8c0,0.9-0.8,1.2-1.5,1.2c-1,0-1.5-0.7-1.5-1.9s0.5-1.8,1.5-1.8c0.8,0,1.5,0.3,1.5,1.2h-0.9
				c0-0.3-0.2-0.5-0.6-0.5c-0.5,0-0.6,0.7-0.6,1.2c0,0.5,0.1,1.1,0.6,1.1c0.4,0,0.6-0.2,0.6-0.5H353.2z"/>
			<circle class="st0" cx="346.4" cy="33.9" r="4.1"/>
			<path class="st0" d="M348.3,66.9h-1.6c0,0.3,0.1,0.6,0.4,0.6c0.2,0,0.4-0.1,0.4-0.3h0.8c0,0.3-0.2,0.5-0.4,0.7
				c-0.2,0.1-0.4,0.2-0.7,0.2c-0.9,0-1.2-0.4-1.2-1.4c0-0.8,0.5-1.2,1.2-1.2C348,65.4,348.3,66,348.3,66.9z M346.8,66.4h0.8
				c0-0.1,0-0.3-0.1-0.4c-0.1-0.1-0.2-0.2-0.3-0.2C346.9,65.9,346.8,66.2,346.8,66.4z"/>
			<ellipse class="st0" cx="344.3" cy="25.9" rx="2.8" ry="2.8"/>
			<rect x="344.6" y="64.4" class="st0" width="0.8" height="3.5"/>
			<path class="st0" d="M343.2,65.4c0.7,0,1,0.6,1,1.3c0,0.8-0.3,1.3-1,1.3c-0.3,0-0.6-0.2-0.6-0.4h0l0,0.4h-0.8v-3.5h0.8v1.3h0
				C342.6,65.5,342.9,65.4,343.2,65.4z M343.3,66.7c0-0.3,0-0.8-0.4-0.8c-0.4,0-0.4,0.5-0.4,0.8c0,0.3,0.1,0.7,0.4,0.7
				C343.2,67.5,343.3,67.1,343.3,66.7z"/>
			<ellipse class="st0" cx="339.8" cy="40.1" rx="4.3" ry="4.3"/>
			<ellipse class="st0" cx="339.1" cy="30.6" rx="3.5" ry="3.5"/>
			<rect x="340.2" y="64.4" class="st0" width="0.8" height="0.7"/>
			<rect x="340.2" y="65.5" class="st0" width="0.8" height="2.5"/>
			<path class="st0" d="M339.8,60.4l0,0.2H332l0-0.2c0.3-0.1,0.5-0.4,0.6-0.8V55c0,0,0-0.9-0.3-1.3l-4.5-4.9c0,0-0.5-0.3-0.5-0.8
				v-13c0,0,0-1.2,1-1.6c0,0,1-0.5,1.8-0.2c0,0,1.3,0.4,1.5,1.7v5.6c0,0,0.1,0.8-0.6,1c0,0-1.1,0.4-1.3,1.9c0,0,0,0.9,0.6,1.7l2.7,3
				c0,0,0.6,0,0.1-0.6l-0.2-0.2l-2.4-2.7c0,0-0.7-0.8-0.3-1.8c0,0,0.4-0.8,1.4-1c0,0,0.5-0.2,1.4,0.3l5.6,6.1c0,0,0.5,0.4,0.4,1.4
				v9.8C339,59.5,339.1,60.1,339.8,60.4z"/>
			<path class="st0" d="M339.7,66.3h-0.8c0-0.1,0-0.2-0.1-0.2c0-0.1-0.1-0.1-0.2-0.1c-0.1,0-0.2,0.1-0.2,0.2c0,0.2,0.3,0.2,0.9,0.4
				c0.3,0.1,0.4,0.3,0.4,0.7c0,0.6-0.5,0.8-1.1,0.8c-0.5,0-1.1-0.1-1.1-0.9h0.8c0,0.1,0,0.2,0.1,0.2c0,0.1,0.1,0.1,0.2,0.1
				c0.2,0,0.3-0.1,0.3-0.2c0-0.4-1.3-0.2-1.3-1.1c0-0.6,0.6-0.8,1-0.8C339.2,65.4,339.7,65.6,339.7,66.3z"/>
			<path class="st0" d="M337.2,66.3V68h-0.8v-1.4c0-0.2-0.1-0.5-0.3-0.5c-0.4,0-0.4,0.5-0.4,0.5V68h-0.8v-1.8c0-0.2,0-0.4,0-0.6h0.9
				l0,0.3c0.2-0.2,0.4-0.3,0.7-0.3C336.8,65.4,337.2,65.8,337.2,66.3z"/>
			<path class="st0" d="M334.3,66.7c0,0.9-0.6,1.3-1.3,1.3c-0.7,0-1.3-0.4-1.3-1.3c0-0.9,0.6-1.3,1.3-1.3
				C333.7,65.4,334.3,65.8,334.3,66.7z M333.5,66.7c0-0.3-0.1-0.8-0.4-0.8c-0.4,0-0.4,0.4-0.4,0.8c0,0.4,0.1,0.8,0.4,0.8
				C333.4,67.5,333.5,67.1,333.5,66.7z"/>
			<path class="st0" d="M330.4,65.4c0.7,0,0.9,0.6,0.9,1.3c0,0.7-0.3,1.3-1,1.3c-0.2,0-0.5-0.2-0.6-0.4h0v1.2h-0.8v-3.4h0.8v0.4h0
				C329.9,65.6,330.1,65.4,330.4,65.4z M330.5,66.7c0-0.3-0.1-0.8-0.4-0.8c-0.4,0-0.4,0.4-0.4,0.8c0,0.3,0.1,0.8,0.4,0.8
				C330.5,67.5,330.5,67.1,330.5,66.7z"/>
			<path class="st0" d="M328.4,66.3h-0.8c0-0.1,0-0.2-0.1-0.2c0-0.1-0.1-0.1-0.2-0.1c-0.1,0-0.2,0.1-0.2,0.2c0,0.2,0.3,0.2,0.9,0.4
				c0.3,0.1,0.4,0.3,0.4,0.7c0,0.6-0.5,0.8-1.1,0.8c-0.5,0-1.1-0.1-1.1-0.9h0.8c0,0.1,0,0.2,0.1,0.2c0,0.1,0.1,0.1,0.2,0.1
				c0.2,0,0.3-0.1,0.3-0.2c0-0.4-1.3-0.2-1.3-1.1c0-0.6,0.6-0.8,1-0.8C327.9,65.4,328.4,65.6,328.4,66.3z"/>
			<path class="st0" d="M326,66.9h-1.6c0,0.3,0.1,0.6,0.4,0.6c0.2,0,0.4-0.1,0.4-0.3h0.8c0,0.3-0.2,0.5-0.4,0.7
				c-0.2,0.1-0.4,0.2-0.7,0.2c-0.9,0-1.2-0.4-1.2-1.4c0-0.8,0.5-1.2,1.2-1.2C325.7,65.4,326,66,326,66.9z M324.4,66.4h0.8
				c0-0.1,0-0.3-0.1-0.4c-0.1-0.1-0.2-0.2-0.3-0.2C324.5,65.9,324.5,66.2,324.4,66.4z"/>
			<path class="st0" d="M323.4,68h-1c-0.1-0.2-0.1-0.5-0.1-0.7c0-0.4-0.1-0.6-0.5-0.6h-0.3V68h-0.9v-3.5h1.5c0.5,0,1.2,0.2,1.2,0.9
				c0,0.5-0.4,0.8-0.8,0.9v0c0.6,0,0.7,0.3,0.7,0.9C323.2,67.4,323.3,67.7,323.4,68z M322.4,65.5c0-0.4-0.3-0.4-0.6-0.4h-0.3v0.8
				h0.3C322.1,65.9,322.4,65.9,322.4,65.5z"/>
		</g>
		<g>
		</g>
	</g>
</g>
<g>
	<g id="XMLID_1_">
		<g>
			<polygon class="st0" points="123.4,36.8 123.4,40.8 81.7,30 81.7,26 			"/>
			<path class="st0" d="M111.3,60.9h3.8c1.2,0,2.1-0.9,2.1-2c0-1.1-0.9-2-2.1-2h-3.8V60.9z M119.6,54.3c2.5,0.4,4.4,2.5,4.4,5.1
				c0,3.6-3,6.6-6.6,6.6V66h-12.5V43.4H117c3.7,0,6.5,2.5,6.5,5.9C123.4,51.7,121.8,53.6,119.6,54.3L119.6,54.3z M116.8,50.1
				c0-1.1-0.9-1.9-1.9-1.9h-3.5V52l0,0h3.5C115.9,52,116.8,51.2,116.8,50.1z"/>
			<polygon class="st0" points="102.8,43.4 102.8,65.9 95.8,65.9 95.8,57.5 90.4,57.5 90.4,65.9 83.4,65.9 83.4,43.4 90.4,43.4 
				90.4,52 95.8,52 95.8,43.4 			"/>
			<polygon class="st0" points="77.6,51.1 82.3,65.9 75.3,65.9 74,61.5 68.9,61.5 67.6,66 60.6,66 65.3,51.1 67.2,51.7 69.9,53.6 
				68.8,56.6 71.5,54.7 74.1,56.6 73.1,53.6 73,53.6 75.6,51.7 			"/>
			<polygon class="st0" points="81.7,26 81.7,30 40,40.8 40,36.8 81.7,26 			"/>
			<polygon class="st2" points="81.7,26 81.7,26 81.7,26 			"/>
			<polygon class="st3" points="81.7,26 81.7,26 81.7,26 			"/>
			<polygon class="st0" points="77.6,51.1 75.6,51.7 72.4,51.7 71.4,48.7 70.5,51.7 67.2,51.7 65.3,51.1 67.7,43.4 75.2,43.4 			"/>
			<polygon class="st0" points="59.6,43.4 59.6,65.9 53.8,65.9 45.9,53 46.1,65.9 40,65.9 40,43.4 46.6,43.4 53.7,55 53.5,43.4 
				53.6,43.4 			"/>
		</g>
		<g>
		</g>
	</g>
</g>
<path class="st0" d="M-3048.5,1292.7v-2500"/>
<g>
	<path class="st0" d="M496.8,26c-28.1,0-50.8,9-50.8,20c0,11,22.8,20,50.8,20s50.8-9,50.8-20C547.6,35,524.8,26,496.8,26L496.8,26z
		 M496.8,64.2c-27,0-49-8.1-49-18.2s21.9-18.2,49-18.2c27,0,49,8.1,49,18.2C545.8,56,523.8,64.2,496.8,64.2L496.8,64.2z"/>
	<path class="st0" d="M468.8,33.2v21.9c0,2,0.4,4,3,4.5c1.2,0.3,2.3,0.5,3.5,0.7c1.7,0.3,4.4-1.6,4.4-5V31.1c-0.5,0.1-2.5,0.3-3,0.4
		v22.9c0,1.8-0.7,2.7-2,2.5c-0.6-0.1-0.9-0.1-1.4-0.3c-0.7-0.1-1.5-0.8-1.5-2.2v-22C471.2,32.6,469.6,33,468.8,33.2L468.8,33.2z
		 M514.9,60.7V31.4c0.8,0.1,1.3,0.1,2.3,0.3l5.5,16.5V32.7c0.7,0.2,2,0.5,3,0.8v25.2c-0.5,0.3-2,0.6-2.4,0.7l-5.4-16.6v17.6
		C517.3,60.4,516,60.6,514.9,60.7z M528.5,34.2v3.1c0.6,0.2,3.3,1,4.1,1.4v17.8c0.8-0.3,2.4-1,3-1.3V40.1c0.7,0.3,2.2,1.1,3,1.8
		v-3.2C538.3,38,531.4,34.8,528.5,34.2z M461.8,35.3c-0.8,0.2-4.3,1.6-5.8,2.7v16.1c0.9,0.4,3.7,2,5.5,2.6c1.5,0.5,4.3,0.8,4.3-3.1
		V38.9C465.8,37.6,465.2,33.9,461.8,35.3z M462.9,51.8c0,2.9-1.1,1.7-1.9,1.4c0,0-1.5-0.7-1.9-0.9V39.7c0.3-0.1,1.9-0.8,2.3-1
		c1.6-0.7,1.6,0.1,1.6,1.8L462.9,51.8L462.9,51.8z M494.2,30.1c-1-0.1-6.3,0.3-7.5,0.3v31.2c1,0.2,2.3,0.1,3,0.2v-9.4h4.5
		c1.8,0,3-1.4,3-2.8V33.1C497.3,30.7,494.7,30.1,494.2,30.1z M494.2,49.4h-4.5V33.3c0.7-0.1,3.7-0.2,4.5-0.2V49.4z M508.6,30.6
		c-1.3-0.1-3.5-0.3-4.7-0.3c-1.3-0.1-3,1.3-3,2.9v24.9c0,1.5,1,3.7,3,3.6c1.2,0,3.7-0.2,4.7-0.3c1.3-0.1,2.9-2.1,3-3.4V34
		C511.5,33.1,511,30.8,508.6,30.6z M508.6,57.1c0,0.6-0.4,1.4-1.3,1.4l-2.1,0.2c-0.6,0-1.4-0.8-1.4-1.6V34.8
		c0.1-0.7,0.6-1.4,1.3-1.4l2.1,0.2c0.7,0.1,1.3,0.5,1.3,1.7V57.1z"/>
</g>
<g>
	<g id="XMLID_3_">
		<g>
			<path class="st0" d="M744.2,36.1c0.6,0.5,0.9,1.3,0.8,2c0,0.8-0.3,1.5-0.9,2.1c-0.6,0.5-1.2,0.8-2,0.8c-0.8,0-1.5-0.3-2.1-0.8
				c-0.6-0.6-0.8-1.2-0.8-2.1c0-0.8,0.3-1.5,0.9-2.1c0.6-0.5,1.2-0.8,2-0.8C742.9,35.3,743.6,35.6,744.2,36.1z M744.5,38.2
				c0-0.6-0.2-1.2-0.7-1.7c-0.5-0.5-1-0.7-1.7-0.7c-0.6,0-1.3,0.3-1.7,0.7c-0.5,0.5-0.7,1-0.7,1.7c0,0.6,0.2,1.3,0.7,1.7
				c0.4,0.5,1.1,0.7,1.7,0.7c0.6,0,1.2-0.2,1.7-0.7C744.3,39.4,744.5,38.8,744.5,38.2z"/>
			<path class="st0" d="M743.4,39.7L743.4,39.7l-0.8,0.1c0-0.1,0-0.3-0.1-0.4c0-0.2,0-0.3-0.1-0.4c0-0.1-0.1-0.2-0.2-0.2
				c-0.1,0-0.2,0-0.3-0.1l-0.2,0h-0.2v1.1h-0.8v-3.2l0.9,0c0.2,0,0.4,0,0.7,0c0.3,0,0.5,0.1,0.6,0.2c0.3,0.2,0.4,0.4,0.4,0.8
				c0,0.3-0.1,0.5-0.2,0.6c-0.2,0.1-0.3,0.2-0.6,0.2c0.2,0,0.4,0.1,0.5,0.2c0.2,0.2,0.3,0.4,0.3,0.7v0.3
				C743.4,39.5,743.4,39.6,743.4,39.7C743.4,39.6,743.4,39.6,743.4,39.7z M742.5,37.9c0.1-0.1,0.2-0.2,0.2-0.4
				c0-0.2-0.1-0.3-0.3-0.4c-0.1,0-0.3-0.1-0.5-0.1h-0.2v0.9h0.3C742.2,38.1,742.4,38,742.5,37.9z"/>
			<path class="st0" d="M740.8,33.5v0.7c-1.4,0.1-2.4,0.5-2.9,1c-0.5,0.5-0.7,1.8-0.7,3.8v19.8h-0.6L720,38.2v14.6
				c0,2.1,0.3,3.4,0.9,4c0.4,0.4,1.3,0.7,2.6,0.8v0.7h-19v-0.7c1.1-0.1,1.8-0.2,2.1-0.4c0.3-0.1,0.5-0.5,0.5-1c0-0.2-0.1-0.5-0.2-1
				c-0.1-0.5-0.3-1-0.5-1.5l-1.6-3.6h-9.8c-1,2.5-1.6,4-1.8,4.5c-0.2,0.5-0.3,1-0.3,1.3c0,0.6,0.3,1.1,0.8,1.3
				c0.3,0.1,0.9,0.3,1.8,0.3v0.7h-24.3l-8.9-11.6l-2.1,0.1v7.4c0,1.4,0.2,2.3,0.6,2.6c0.4,0.4,1.3,0.6,2.8,0.7v0.7h-10.4v-0.7
				c1.4-0.1,2.3-0.4,2.7-0.8c0.4-0.4,0.5-1.4,0.5-3V37.6c0-1.3-0.2-2.2-0.6-2.6c-0.4-0.4-1.3-0.7-2.6-0.8v-0.7h10.4
				c2.2,0,4,0.3,5.4,0.8c2.7,1,4.1,3,4.1,5.7c0,1.9-0.6,3.3-1.8,4.3c-1.2,1-2.9,1.7-5,2l7.7,9.5c0.5,0.6,1,1,1.4,1.3
				c0.5,0.3,1.1,0.4,1.8,0.5c1.5-0.1,2.5-0.3,2.9-0.7c0.5-0.3,0.7-1.2,0.7-2.7V37.6c0-1.4-0.2-2.3-0.7-2.7c-0.5-0.4-1.4-0.6-3-0.7
				v-0.7h11.1v0.7c-1.5,0.1-2.5,0.3-3,0.7c-0.5,0.4-0.7,1.3-0.7,2.7v16.7c0,1.5,0.2,2.4,0.7,2.7c0.4,0.3,1.4,0.6,2.9,0.7
				c0.9-0.1,1.6-0.5,2.1-1.1c0.5-0.6,1.3-2.3,2.5-5.1l7.8-18.4h0.7l9.4,21.3c0.6,1.4,1.1,2.3,1.5,2.6c0.4,0.3,1.7,0.5,2.6,0.7
				c1.5-0.2,2.4-0.5,2.9-1c0.4-0.5,0.7-1.8,0.7-3.8V36.3l-0.5-0.6c-0.5-0.6-1-1-1.4-1.2c-0.4-0.2-1-0.2-1.7-0.3v-0.7h6.4l14.5,18.1
				V39.1c0-2.1-0.3-3.4-0.9-4c-0.4-0.4-1.3-0.7-2.7-0.8v-0.7H740.8z M704.4,48.7L700,38.4l-4.3,10.3H704.4z M669,40.1
				c0-2.2-0.9-3.7-2.7-4.5c-1-0.4-2.2-0.6-3.8-0.6c-1.1,0-1.7,0.1-2,0.2c-0.2,0.2-0.4,0.5-0.4,1.1v9.3c2.7-0.1,4.6-0.4,5.8-0.8
				C668,43.9,669,42.3,669,40.1z"/>
			<path class="st0" d="M648.7,36.3c2.5,2.4,3.8,5.6,3.8,9.6c0,4.1-1.3,7.3-3.9,9.7c-2.3,2.2-5.1,3.2-8.4,3.2
				c-3.5,0-6.4-1.2-8.8-3.6c-2.4-2.4-3.5-5.6-3.5-9.4c0-4,1.3-7.2,3.8-9.6c2.3-2.2,5.2-3.3,8.5-3.3C643.5,33,646.4,34.1,648.7,36.3z
				 M645.8,54.8c1.6-1.8,2.4-4.8,2.4-8.8c0-4.1-0.8-7.1-2.4-8.9c-1.6-1.8-3.5-2.7-5.6-2.7c-2.2,0-4.2,0.9-5.7,2.8
				c-1.6,1.9-2.3,4.8-2.3,8.8c0,3.9,0.8,6.9,2.3,8.8c1.6,1.9,3.5,2.8,5.7,2.8C642.3,57.6,644.2,56.6,645.8,54.8z"/>
			<path class="st0" d="M627,53.5l0.7,0.7c-0.8,1.1-1.9,2-3.1,2.8c-2.1,1.3-4.4,2-6.8,2c-4,0-7.2-1.3-9.6-3.9
				c-2.2-2.4-3.3-5.4-3.3-8.9c0-3.7,1.2-6.7,3.5-9.2c2.4-2.6,5.6-3.9,9.5-3.9c1.4,0,2.8,0.2,4.2,0.6c1.4,0.4,2.2,0.6,2.4,0.6
				c0.4,0,0.7-0.1,1-0.3c0.3-0.2,0.5-0.5,0.7-0.9h0.8l0.3,8.4h-0.9c-0.5-1.7-1.2-3-2-4.1c-1.5-1.9-3.6-2.9-6.2-2.9
				c-2.6,0-4.8,1-6.4,3.1c-1.7,2.1-2.5,4.9-2.5,8.6c0,3.4,0.9,6,2.6,8c1.8,2,4,3,6.7,3c1.9,0,3.7-0.5,5.4-1.4
				C624.8,55.4,625.9,54.6,627,53.5z"/>
		</g>
		<g>
		</g>
	</g>
</g>
</svg>
