<svg style="position: absolute; width: 0; height: 0; overflow: hidden;" version="1.1" xmlns="http://www.w3.org/2000/svg" xmlns:xlink="http://www.w3.org/1999/xlink">
<defs>
<symbol id="icon-icon" viewBox="0 0 68 68">
<title>icon</title>
<g>
	<path d="M24.6,33.8c-0.6-0.6-1.4-1.2-2.2-1.5c-0.9-0.4-1.8-0.6-2.9-0.6c-1.1,0-2,0.2-2.9,0.6c-0.9,0.4-1.6,0.9-2.2,1.5
		c-0.6,0.6-1.1,1.4-1.4,2.3C12.6,37,12.5,38,12.5,39c0,1,0.2,2,0.5,2.9c0.3,0.9,0.8,1.7,1.4,2.3c0.6,0.6,1.3,1.2,2.2,1.5
		c0.9,0.4,1.8,0.6,2.9,0.6c1.1,0,2-0.2,2.9-0.6c0.9-0.4,1.6-0.9,2.2-1.5c0.6-0.6,1.1-1.4,1.4-2.3c0.3-0.9,0.5-1.9,0.5-2.9
		c0-1-0.2-2-0.5-2.9C25.7,35.2,25.2,34.5,24.6,33.8z"/>
	<path d="M52.5,32.9c-1.2-0.9-2.5-1.3-4.1-1.3c-1.6,0-2.9,0.4-4.1,1.3c-1.2,0.9-2,2-2.4,3.2h12.9C54.5,34.8,53.7,33.7,52.5,32.9z"/>
	<path d="M58,0H10C4.5,0,0,4.5,0,10v48c0,5.5,4.5,10,10,10h48c5.5,0,10-4.5,10-10V10C68,4.5,63.5,0,58,0z M30.9,44.1
		c-0.6,1.5-1.4,2.8-2.5,3.9c-1.1,1.1-2.3,1.9-3.8,2.5c-1.5,0.6-3.1,0.9-4.9,0.9c-1.6,0-3-0.3-4.2-0.8c-1.2-0.6-2.2-1.2-2.9-2v2.5
		H7.2v-34l5.3-0.6v12.8c0.7-0.8,1.7-1.5,3-2c1.2-0.5,2.6-0.8,4.1-0.8c1.8,0,3.5,0.3,4.9,0.9c1.5,0.6,2.7,1.4,3.8,2.5
		c1.1,1.1,1.9,2.4,2.5,3.9c0.6,1.5,0.9,3.2,0.9,5.1C31.7,40.9,31.5,42.6,30.9,44.1z M60.6,40.8H41.7c0.2,0.8,0.4,1.5,0.8,2.2
		c0.4,0.7,0.9,1.2,1.5,1.7c0.6,0.5,1.3,0.9,2.1,1.2c0.8,0.3,1.6,0.4,2.5,0.4c1.2,0,2.3-0.2,3.3-0.6c1-0.4,1.7-1,2.2-1.7h6.4
		c-0.4,1.1-1,2.1-1.8,3C57.9,48,57,48.7,56,49.4c-1,0.6-2.2,1.1-3.4,1.5c-1.3,0.4-2.6,0.5-3.9,0.5c-1.7,0-3.4-0.3-4.9-1
		c-1.5-0.6-2.8-1.5-4-2.6c-1.1-1.1-2-2.4-2.6-4c-0.6-1.5-1-3.1-1-4.9c0-1.7,0.3-3.3,0.9-4.9c0.6-1.5,1.5-2.8,2.6-4
		c1.1-1.1,2.4-2,3.9-2.6c1.5-0.6,3.1-1,4.8-1c1.7,0,3.3,0.3,4.8,1c1.5,0.6,2.8,1.5,3.9,2.6c1.1,1.1,2,2.4,2.6,4
		c0.6,1.5,0.9,3.1,0.9,4.9C60.8,39.6,60.7,40.3,60.6,40.8z"/>
</g>
</symbol>
<symbol id="icon-logo" viewBox="0 0 68 32">
<title>logo</title>
<path fill="#000" style="fill: var(--color1, #000)" d="M10.976 6.688h3.328v2.752h-3.328v-2.752z"></path>
<path fill="#000" style="fill: var(--color1, #000)" d="M10.976 10.656h3.328v10.368h-3.328v-10.368z"></path>
<path fill="#000" style="fill: var(--color1, #000)" d="M16.704 6.688h6.336c1.76 0 3.104 0.512 4.032 1.44 0.768 0.8 1.184 1.92 1.184 3.264v0.032c0 2.304-1.216 3.776-2.976 4.448l3.36 5.12h-3.52l-2.976-4.576h-2.4v4.576h-3.040v-14.304zM22.848 13.632c1.472 0 2.336-0.832 2.336-2.016v-0.032c0-1.344-0.896-2.048-2.4-2.048h-3.008v4.128h3.072z"></path>
<path fill="#000" style="fill: var(--color1, #000)" d="M39.68 6.752h1.152v5.248h-1.152v-5.248z"></path>
<path fill="#000" style="fill: var(--color1, #000)" d="M42.528 6.752h1.056l2.464 3.232v-3.232h1.12v5.248h-0.96l-2.56-3.328v3.328h-1.12v-5.248z"></path>
<path fill="#000" style="fill: var(--color1, #000)" d="M48.448 11.264l0.672-0.832c0.48 0.384 0.96 0.64 1.568 0.64 0.48 0 0.768-0.192 0.768-0.48v0c0-0.288-0.192-0.448-1.056-0.672-1.056-0.256-1.728-0.576-1.728-1.6v0c0-0.96 0.768-1.568 1.824-1.568 0.768 0 1.408 0.224 1.952 0.672l-0.608 0.864c-0.48-0.32-0.928-0.512-1.376-0.512s-0.672 0.192-0.672 0.448v0c0 0.352 0.224 0.448 1.12 0.704 1.056 0.288 1.664 0.672 1.664 1.568v0c0 1.056-0.8 1.632-1.92 1.632-0.768-0.032-1.568-0.32-2.208-0.864z"></path>
<path fill="#000" style="fill: var(--color1, #000)" d="M54.048 6.752h1.152v5.248h-1.152v-5.248z"></path>
<path fill="#000" style="fill: var(--color1, #000)" d="M56.896 6.752h2.048c1.664 0 2.784 1.12 2.784 2.624v0c0 1.472-1.152 2.624-2.784 2.624h-2.048v-5.248zM58.048 7.808v3.168h0.896c0.96 0 1.568-0.64 1.568-1.568v0c0-0.928-0.64-1.568-1.568-1.568h-0.896z"></path>
<path fill="#000" style="fill: var(--color1, #000)" d="M63.136 6.752h3.968v1.024h-2.816v1.088h2.464v1.024h-2.464v1.088h2.848v1.024h-4v-5.248z"></path>
<path fill="#000" style="fill: var(--color1, #000)" d="M39.616 15.776h2.4c0.672 0 1.184 0.192 1.536 0.544 0.288 0.288 0.448 0.704 0.448 1.216v0c0 0.832-0.448 1.376-1.12 1.632l1.28 1.888h-1.344l-1.12-1.696h-0.896v1.696h-1.152v-5.28zM41.952 18.304c0.576 0 0.896-0.288 0.896-0.736v0c0-0.48-0.352-0.736-0.896-0.736h-1.152v1.504h1.152z"></path>
<path fill="#000" style="fill: var(--color1, #000)" d="M45.408 15.776h3.968v1.024h-2.816v1.056h2.496v1.024h-2.496v1.12h2.848v1.024h-4v-5.248z"></path>
<path fill="#000" style="fill: var(--color1, #000)" d="M52.032 16.832h-1.6v-1.056h4.352v1.056h-1.6v4.192h-1.152v-4.192z"></path>
<path fill="#000" style="fill: var(--color1, #000)" d="M57.184 15.712h1.056l2.24 5.28h-1.216l-0.48-1.184h-2.208l-0.48 1.184h-1.184l2.272-5.28zM58.4 18.816l-0.704-1.696-0.704 1.696h1.408z"></path>
<path fill="#000" style="fill: var(--color1, #000)" d="M61.728 15.776h1.152v5.248h-1.152v-5.248z"></path>
<path fill="#000" style="fill: var(--color1, #000)" d="M64.576 15.776h1.152v4.192h2.624v1.056h-3.776v-5.248z"></path>
<path fill="#f7941e" style="fill: var(--color5, #f7941e)" d="M35.328 3.328v8l-3.328-2.4v-5.6z"></path>
<path fill="#92278f" style="fill: var(--color6, #92278f)" d="M35.328 11.328v20.672l-3.328-4.32h-4.576l-7.232-3.328h11.808v-15.424z"></path>
<path fill="#ec008c" style="fill: var(--color7, #ec008c)" d="M27.424 27.68h-19.776v-3.328h12.544z"></path>
<path fill="#f9ed32" style="fill: var(--color8, #f9ed32)" d="M26.624 0l-6.304 3.328h-12.672v6.72l-3.36 1.76v-11.808z"></path>
<path fill="#00a79d" style="fill: var(--color9, #00a79d)" d="M32 0v3.328h-11.68l6.304-3.328z"></path>
<path fill="#00a79d" style="fill: var(--color9, #00a79d)" d="M7.648 10.048v14.304h-7.648l4.288-3.328v-9.216z"></path>
</symbol>
<symbol id="icon-instagram" viewBox="0 0 16 16">
<title>instagram</title>
<path class="path1" d="M8 1.441c2.137 0 2.391 0.009 3.231 0.047 0.781 0.034 1.203 0.166 1.484 0.275 0.372 0.144 0.641 0.319 0.919 0.597 0.281 0.281 0.453 0.547 0.6 0.919 0.109 0.281 0.241 0.706 0.275 1.484 0.037 0.844 0.047 1.097 0.047 3.231s-0.009 2.391-0.047 3.231c-0.034 0.781-0.166 1.203-0.275 1.484-0.144 0.372-0.319 0.641-0.597 0.919-0.281 0.281-0.547 0.453-0.919 0.6-0.281 0.109-0.706 0.241-1.484 0.275-0.844 0.037-1.097 0.047-3.231 0.047s-2.391-0.009-3.231-0.047c-0.781-0.034-1.203-0.166-1.484-0.275-0.372-0.144-0.641-0.319-0.919-0.597-0.281-0.281-0.453-0.547-0.6-0.919-0.109-0.281-0.241-0.706-0.275-1.484-0.038-0.844-0.047-1.097-0.047-3.231s0.009-2.391 0.047-3.231c0.034-0.781 0.166-1.203 0.275-1.484 0.144-0.372 0.319-0.641 0.597-0.919 0.281-0.281 0.547-0.453 0.919-0.6 0.281-0.109 0.706-0.241 1.484-0.275 0.841-0.038 1.094-0.047 3.231-0.047zM8 0c-2.172 0-2.444 0.009-3.297 0.047-0.85 0.038-1.434 0.175-1.941 0.372-0.528 0.206-0.975 0.478-1.419 0.925-0.447 0.444-0.719 0.891-0.925 1.416-0.197 0.509-0.334 1.091-0.372 1.941-0.037 0.856-0.047 1.128-0.047 3.3s0.009 2.444 0.047 3.297c0.038 0.85 0.175 1.434 0.372 1.941 0.206 0.528 0.478 0.975 0.925 1.419 0.444 0.444 0.891 0.719 1.416 0.922 0.509 0.197 1.091 0.334 1.941 0.372 0.853 0.037 1.125 0.047 3.297 0.047s2.444-0.009 3.297-0.047c0.85-0.037 1.434-0.175 1.941-0.372 0.525-0.203 0.972-0.478 1.416-0.922s0.719-0.891 0.922-1.416c0.197-0.509 0.334-1.091 0.372-1.941 0.037-0.853 0.047-1.125 0.047-3.297s-0.009-2.444-0.047-3.297c-0.037-0.85-0.175-1.434-0.372-1.941-0.197-0.531-0.469-0.978-0.916-1.422-0.444-0.444-0.891-0.719-1.416-0.922-0.509-0.197-1.091-0.334-1.941-0.372-0.856-0.041-1.128-0.050-3.3-0.050v0z"></path>
<path class="path2" d="M8 3.891c-2.269 0-4.109 1.841-4.109 4.109s1.841 4.109 4.109 4.109 4.109-1.841 4.109-4.109c0-2.269-1.841-4.109-4.109-4.109zM8 10.666c-1.472 0-2.666-1.194-2.666-2.666s1.194-2.666 2.666-2.666c1.472 0 2.666 1.194 2.666 2.666s-1.194 2.666-2.666 2.666z"></path>
<path class="path3" d="M13.231 3.728c0 0.53-0.43 0.959-0.959 0.959s-0.959-0.43-0.959-0.959c0-0.53 0.43-0.959 0.959-0.959s0.959 0.43 0.959 0.959z"></path>
</symbol>
<symbol id="icon-arrow-up8" viewBox="0 0 16 16">
<title>arrow-up8</title>
<path class="path1" d="M13.707 6.293l-5-5c-0.39-0.391-1.024-0.391-1.414 0l-5 5c-0.391 0.391-0.391 1.024 0 1.414s1.024 0.391 1.414 0l3.293-3.293v9.586c0 0.552 0.448 1 1 1s1-0.448 1-1v-9.586l3.293 3.293c0.195 0.195 0.451 0.293 0.707 0.293s0.512-0.098 0.707-0.293c0.391-0.391 0.391-1.024 0-1.414z"></path>
</symbol>
<symbol id="icon-facebook" viewBox="0 0 16 16">
<title>facebook</title>
<path class="path1" d="M9.5 3h2.5v-3h-2.5c-1.93 0-3.5 1.57-3.5 3.5v1.5h-2v3h2v8h3v-8h2.5l0.5-3h-3v-1.5c0-0.271 0.229-0.5 0.5-0.5z"></path>
</symbol>
<symbol id="icon-envelop" viewBox="0 0 32 32">
<title>envelop</title>
<path d="M30 4h-28c-1.1 0-2 0.9-2 2v20c0 1.1 0.9 2 2 2h28c1.1 0 2-0.9 2-2v-20c0-1.1-0.9-2-2-2zM11.662 19.546l-6 4.364c-0.2 0.145-0.431 0.215-0.661 0.215-0.348 0-0.691-0.161-0.911-0.463-0.365-0.502-0.254-1.206 0.248-1.572l6-4.364c0.502-0.365 1.206-0.254 1.572 0.248s0.254 1.206-0.248 1.572zM27.91 23.662c-0.22 0.303-0.563 0.463-0.911 0.463-0.23 0-0.461-0.070-0.661-0.215l-6-4.364c-0.503-0.366-0.614-1.069-0.248-1.572s1.069-0.613 1.572-0.248l6 4.364c0.502 0.366 0.613 1.069 0.248 1.572zM27.662 9.91l-11 8c-0.197 0.143-0.429 0.215-0.662 0.215s-0.464-0.072-0.662-0.215l-11-8c-0.502-0.365-0.614-1.069-0.248-1.572s1.069-0.614 1.572-0.248l10.338 7.519 10.338-7.519c0.502-0.365 1.206-0.254 1.572 0.248s0.254 1.206-0.248 1.572z"></path>
</symbol>
<symbol id="icon-twitter" viewBox="0 0 16 16">
<title>twitter</title>
<path class="path1" d="M16 3.538c-0.588 0.263-1.222 0.438-1.884 0.516 0.678-0.406 1.197-1.050 1.444-1.816-0.634 0.375-1.338 0.65-2.084 0.797-0.6-0.638-1.453-1.034-2.397-1.034-1.813 0-3.281 1.469-3.281 3.281 0 0.256 0.028 0.506 0.084 0.747-2.728-0.138-5.147-1.444-6.766-3.431-0.281 0.484-0.444 1.050-0.444 1.65 0 1.138 0.578 2.144 1.459 2.731-0.538-0.016-1.044-0.166-1.488-0.409 0 0.013 0 0.028 0 0.041 0 1.591 1.131 2.919 2.634 3.219-0.275 0.075-0.566 0.116-0.866 0.116-0.212 0-0.416-0.022-0.619-0.059 0.419 1.303 1.631 2.253 3.066 2.281-1.125 0.881-2.538 1.406-4.078 1.406-0.266 0-0.525-0.016-0.784-0.047 1.456 0.934 3.181 1.475 5.034 1.475 6.037 0 9.341-5.003 9.341-9.341 0-0.144-0.003-0.284-0.009-0.425 0.641-0.459 1.197-1.038 1.637-1.697z"></path>
</symbol>
<symbol id="icon-youtube" viewBox="0 0 16 16">
<title>youtube</title>
<path class="path1" d="M15.841 4.8c0 0-0.156-1.103-0.637-1.587-0.609-0.637-1.291-0.641-1.603-0.678-2.237-0.163-5.597-0.163-5.597-0.163h-0.006c0 0-3.359 0-5.597 0.163-0.313 0.038-0.994 0.041-1.603 0.678-0.481 0.484-0.634 1.587-0.634 1.587s-0.159 1.294-0.159 2.591v1.213c0 1.294 0.159 2.591 0.159 2.591s0.156 1.103 0.634 1.588c0.609 0.637 1.409 0.616 1.766 0.684 1.281 0.122 5.441 0.159 5.441 0.159s3.363-0.006 5.6-0.166c0.313-0.037 0.994-0.041 1.603-0.678 0.481-0.484 0.637-1.588 0.637-1.588s0.159-1.294 0.159-2.591v-1.213c-0.003-1.294-0.162-2.591-0.162-2.591zM6.347 10.075v-4.497l4.322 2.256-4.322 2.241z"></path>
</symbol>
<symbol id="icon-nature" viewBox="0 0 24 24">
<title>nature</title>
<path d="M0 0h24v24H0z" fill="none"/>
<path d="M13 16.12c3.47-.41 6.17-3.36 6.17-6.95 0-3.87-3.13-7-7-7s-7 3.13-7 7c0 3.47 2.52 6.34 5.83 6.89V20H5v2h14v-2h-6v-3.88z"/>
</symbol>
<symbol id="icon-quality" viewBox="0 0 24 24">
<title>quality</title>
<path d="M0 0h24v24H0z" fill="none"/>
<path d="M19 4H5c-1.11 0-2 .9-2 2v12c0 1.1.89 2 2 2h14c1.1 0 2-.9 2-2V6c0-1.1-.9-2-2-2zm-8 11H9.5v-2h-2v2H6V9h1.5v2.5h2V9H11v6zm7-1c0 .55-.45 1-1 1h-.75v1.5h-1.5V15H14c-.55 0-1-.45-1-1v-4c0-.55.45-1 1-1h3c.55 0 1 .45 1 1v4zm-3.5-.5h2v-3h-2v3z"/>
</symbol>
<symbol id="icon-build" viewBox="0 0 24 24">
<title>build</title>
<path clip-rule="evenodd" d="M0 0h24v24H0z" fill="none"/>
<path d="M22.7 19l-9.1-9.1c.9-2.3.4-5-1.5-6.9-2-2-5-2.4-7.4-1.3L9 6 6 9 1.6 4.7C.4 7.1.9 10.1 2.9 12.1c1.9 1.9 4.6 2.4 6.9 1.5l9.1 9.1c.4.4 1 .4 1.4 0l2.3-2.3c.5-.4.5-1.1.1-1.4z"/>
</symbol>
<symbol id="icon-info" viewBox="0 0 24 24">
<title>info</title>
<path d="M0 0h24v24H0z" fill="none"/>
<path d="M11 17h2v-6h-2v6zm1-15C6.48 2 2 6.48 2 12s4.48 10 10 10 10-4.48 10-10S17.52 2 12 2zm0 18c-4.41 0-8-3.59-8-8s3.59-8 8-8 8 3.59 8 8-3.59 8-8 8zM11 9h2V7h-2v2z"/>
</symbol>
<symbol id="icon-collection" viewBox="0 0 24 24">
<title>collection</title>
<path d="M0 0h24v24H0z" fill="none"/>
<path d="M22 16V4c0-1.1-.9-2-2-2H8c-1.1 0-2 .9-2 2v12c0 1.1.9 2 2 2h12c1.1 0 2-.9 2-2zm-11-4l2.03 2.71L16 11l4 5H8l3-4zM2 6v14c0 1.1.9 2 2 2h14v-2H4V6H2z"/>
</symbol>
<symbol id="icon-photo" viewBox="0 0 24 24">
<title>photo</title>
<path d="M0 0h24v24H0z" fill="none"/>
<path d="M21 19V5c0-1.1-.9-2-2-2H5c-1.1 0-2 .9-2 2v14c0 1.1.9 2 2 2h14c1.1 0 2-.9 2-2zM8.5 13.5l2.5 3.01L14.5 12l4.5 6H5l3.5-4.5z"/>
</symbol>

</defs>
</svg>
